<svg xmlns="http://www.w3.org/2000/svg" width="28" height="28" fill="none">
    <path fill="#FF1E00" d="m19.771 16.491 6.81-4.948c.794-.577.384-1.837-.597-1.837h-8.417L14.966 1.7c-.303-.933-1.629-.933-1.932 0l-2.601 8.006H2.016c-.982 0-1.39 1.26-.597 1.837l6.81 4.948-2.602 8.006c-.303.934.77 1.712 1.563 1.136L14 20.685l6.81 4.948c.794.577 1.866-.203 1.562-1.136l-2.6-8.006Zm-5.174 2.117a1.015 1.015 0 0 0-1.194 0l-4.878 3.544 1.863-5.735a1.016 1.016 0 0 0-.369-1.135l-4.877-3.545h6.029c.44 0 .83-.283.966-.702L14 5.301l1.863 5.734c.136.419.526.702.966.702h6.03l-4.878 3.545a1.016 1.016 0 0 0-.37 1.135l1.864 5.735-4.878-3.544Zm.419 4.962v2.414a1.016 1.016 0 1 1-2.032 0V23.57a1.016 1.016 0 1 1 2.032 0ZM26.92 17.61a1.016 1.016 0 0 1-1.28.652l-2.296-.746a1.016 1.016 0 0 1 .628-1.932l2.296.746c.534.174.826.747.652 1.28ZM19.148 4.598l1.42-1.953a1.015 1.015 0 1 1 1.642 1.194l-1.419 1.953a1.016 1.016 0 1 1-1.643-1.194Zm-13.359-.76a1.016 1.016 0 0 1 1.644-1.193l1.419 1.953a1.016 1.016 0 0 1-1.643 1.194L5.789 3.84Zm-.482 12.4a1.016 1.016 0 0 1-.652 1.28l-2.297.745a1.016 1.016 0 0 1-.627-1.932l2.296-.746a1.016 1.016 0 0 1 1.28.652Z"/>
</svg>