<svg xmlns="http://www.w3.org/2000/svg" width="28" height="28" fill="none"><path fill="#FF1E00" d="M27 25.984c0 .561-.455 1.016-1.016 1.016H14a1.016 1.016 0 1 1 0-2.031h11.984c.561 0 1.016.454 1.016 1.015Zm-1.016-5.01h-7.99a1.016 1.016 0 1 0 0 2.031h7.99a1.016 1.016 0 1 0 0-2.031Zm0-3.995H21.99a1.016 1.016 0 1 0 0 2.032h3.995a1.016 1.016 0 0 0 0-2.032Zm.718-8.253L8.727 26.703c-.19.19-.449.297-.718.297H2.016A1.016 1.016 0 0 1 1 25.984v-5.992c0-.27.107-.527.298-.718L19.274 1.298a1.015 1.015 0 0 1 1.436 0l5.992 5.992c.397.396.397 1.04 0 1.436Zm-2.154-.718-4.556-4.556-16.96 16.96v4.557h4.555L24.548 8.008Z"/></svg>