<svg xmlns="http://www.w3.org/2000/svg" width="28" height="28" fill="none"><path fill="#FF1E00" d="M27 6.002c0-.576-.486-1.014-1.01-1.002H6.01c-.898 0-1.35 1.082-.71 1.71l7.347 7.218-7.354 7.369c-.63.63-.177 1.703.717 1.703h19.98c.553 0 1.008-.447 1.01-.997V6.002Zm-2.018 13.565-5.628-5.64L24.982 8.4v11.167ZM8.462 7h15.077l-7.538 7.406L8.46 7Zm5.618 8.336 1.21 1.188a1.016 1.016 0 0 0 1.42 0l1.21-1.188L23.575 21H8.427l5.653-5.664Z"/><path fill="#FF1E00" d="M3.103 11h2.794C6.507 11 7 10.552 7 10s-.494-1-1.103-1H3.103C2.493 9 2 9.448 2 10s.494 1 1.103 1ZM6 14c0-.552-.494-1-1.103-1H2.103C1.493 13 1 13.448 1 14s.494 1 1.103 1h2.794C5.506 15 6 14.552 6 14ZM7 18c0-.552-.494-1-1.103-1H3.103C2.493 17 2 17.448 2 18s.494 1 1.103 1h2.794C6.507 19 7 18.552 7 18Z"/></svg>