<svg xmlns="http://www.w3.org/2000/svg" width="28" height="28" fill="none"><path fill="#FF1E00" d="M27 25.703V11.03c0-.101 0-.203-.005-.304a1.046 1.046 0 0 0-.36-.762c-1.052-.914-2.108-1.834-3.17-2.738-.223-.193-.334-.39-.334-.695.01-1.433.005-2.86.005-4.292C23.14 1.376 22.77 1 21.912 1H6.098c-.858 0-1.234.376-1.234 1.244 0 1.438-.005 2.875.006 4.317 0 .28-.102.472-.31.655-1.006.864-1.996 1.752-3.017 2.606-.396.325-.543.706-.543 1.208.01 4.876.005 9.746.005 14.622 0 .127-.005.254.01.38.051.57.447.94 1.02.966.118.005.24 0 .356 0h23.223c.137 0 .269.005.406-.005.584-.046.96-.447.975-1.031.005-.092.005-.173.005-.26ZM23.191 9.74c.066-.035.107.026.153.061.31.264.614.528.919.787.096.087.101.168 0 .255l-.904.73c-.152.123-.213.057-.213-.106-.005-.269 0-.538 0-.807v-.757c0-.061-.015-.132.045-.163ZM6.896 3.438c0-.366.04-.407.411-.407h13.345c.432 0 .457.026.457.463 0 3.174 0 6.343.005 9.517 0 .28-.086.472-.304.65-1.285 1.031-2.56 2.077-3.84 3.124-.34.279-.34.279-.675.005l-1.554-1.265c-.502-.406-1-.396-1.493.015-.548.452-1.101.894-1.65 1.346-.152.127-.274.122-.427 0-1.086-.889-2.178-1.772-3.265-2.661-.249-.203-.497-.412-.751-.604-.193-.148-.264-.325-.264-.57.005-3.204.005-6.409.005-9.613Zm-3.159 7.17c.315-.268.625-.543.934-.812.036-.03.077-.081.133-.06.07.025.055.096.06.152v1.549c0 .066.01.142-.055.183-.072.045-.127-.02-.178-.061-.295-.24-.59-.483-.879-.722-.091-.07-.111-.147-.015-.228ZM3.29 23.642c-.056.045-.117.132-.193.101-.096-.035-.06-.147-.06-.228V13.392c0-.086 0-.168.004-.254.005-.056-.01-.127.056-.157.066-.026.112.03.153.066.467.375.934.756 1.396 1.137 1.62 1.32 3.24 2.636 4.855 3.957.254.208.254.233.005.436a3610.751 3610.751 0 0 1-5.073 4.134c-.381.31-.762.625-1.143.93Zm19.698 1.26c-.025.09-.127.06-.198.06-.243.005-.492 0-.736 0H5.332c-.107 0-.264.051-.3-.05-.04-.107.117-.163.198-.23l4.682-3.808c1.26-1.026 2.519-2.052 3.778-3.073.32-.259.325-.249.635.005 2.554 2.083 5.114 4.165 7.668 6.247l.868.701c.056.04.148.071.127.147Zm1.98-6.517v4.998c0 .06.006.116 0 .177-.004.066.021.153-.05.183-.076.036-.122-.045-.168-.086-1.345-1.092-2.691-2.189-4.037-3.28-.736-.6-1.472-1.194-2.204-1.799-.248-.208-.248-.223.006-.431l4.189-3.413c.67-.544 1.335-1.092 2.006-1.63.06-.051.117-.158.208-.107.081.045.046.152.046.239.005 1.711.005 3.428.005 5.15Z"/><path fill="#FF1E00" d="M15.293 12.813c-.275.02-.514-.12-.733-.333L13.06 11c-.224-.224-.25-.218-.443.052l-1.707 2.427a1.26 1.26 0 0 1-.383.374c-.423.244-.922.182-1.243-.156-.316-.338-.387-.868-.122-1.268.428-.644.876-1.278 1.32-1.912.428-.614.86-1.222 1.294-1.835.433-.623 1.07-.707 1.641-.213.071.062.138.13.204.198.433.426.84.878 1.3 1.278.285.25.275.26.504-.062.566-.811 1.136-1.617 1.702-2.427.168-.24.382-.39.663-.437.433-.073.795.073 1.034.447.245.39.23.795-.025 1.17-.434.639-.887 1.267-1.33 1.901-.398.572-.8 1.139-1.198 1.71-.285.41-.54.567-.978.567Z"/></svg>