<svg xmlns="http://www.w3.org/2000/svg" width="28" height="28" fill="none"><path fill="#FF1E00" d="M24.945 24.561c-.185-2.261-.734-4.42-1.777-6.433-.824-1.58-1.872-2.973-3.25-4.1a10.342 10.342 0 0 0-1.947-1.276c-.24-.122-.24-.152-.04-.33.295-.265.584-.524.839-.829 1.228-1.504 1.742-3.221 1.458-5.152-.5-3.39-3.535-5.757-6.89-5.407-3.194.336-5.665 3.105-5.64 6.367.015 2.013.798 3.674 2.316 4.97.28.239.28.249-.045.411-1.388.712-2.556 1.698-3.544 2.912-1.403 1.728-2.332 3.694-2.88 5.854A17.408 17.408 0 0 0 3 25.82c-.005.783.39 1.174 1.148 1.179h19.659c.799 0 1.198-.401 1.193-1.22 0-.406-.02-.813-.055-1.219ZM9.685 7.396c0-2.388 1.946-4.37 4.292-4.375 2.387 0 4.329 1.967 4.339 4.385.01 2.384-1.962 4.416-4.308 4.39-2.417-.02-4.304-1.95-4.324-4.4Zm3.544 9.599c-.185.005-.305-.076-.395-.244-.444-.839-.444-.833-.03-1.682.155-.31.31-.615.46-.93.1-.203.244-.3.474-.295 1.008.016.769-.101 1.198.732.18.35.36.706.544 1.057.09.173.085.33 0 .503-.519 1.027-.294.844-1.323.864h-.175c-.254-.01-.504-.01-.753-.005Zm-2.002 1.489c-.49 2.032-.973 4.06-1.463 6.092-.09.371-.115.392-.489.392H5.406c-.324 0-.384-.072-.354-.392.175-1.94.654-3.8 1.552-5.528.909-1.748 2.117-3.212 3.82-4.218.064-.04.129-.076.199-.107.02-.01.045-.005.09-.005-.03.224-.15.397-.25.58-.22.406-.224.798 0 1.204.24.442.46.904.694 1.352a.856.856 0 0 1 .07.63Zm4.678 6.483H12.06c-.28 0-.32-.04-.255-.315.424-1.793.854-3.582 1.278-5.376.04-.162.13-.249.295-.249.409 0 .813.005 1.223 0 .214 0 .28.133.324.315l.884 3.725c.12.508.244 1.021.364 1.53.085.335.065.37-.27.37Zm6.704 0c-1.323.006-2.646 0-3.964.006-.23 0-.344-.087-.4-.32-.384-1.647-.778-3.288-1.172-4.935-.1-.421-.195-.838-.305-1.255a.783.783 0 0 1 .065-.59c.205-.395.384-.807.609-1.193.294-.503.35-.991.035-1.504a1.26 1.26 0 0 1-.195-.458c.135-.015.21.061.295.112 1.567.94 2.73 2.277 3.624 3.867 1.023 1.824 1.547 3.806 1.747 5.884.03.31-.035.387-.34.387Z"/></svg>