<svg xmlns="http://www.w3.org/2000/svg" width="28" height="28" fill="none"><path fill="#FF1E00" d="M7.01 4A6.015 6.015 0 0 0 1 10.007a6.015 6.015 0 0 0 6.01 6.006 6.015 6.015 0 0 0 6.008-6.006A6.015 6.015 0 0 0 7.01 4Zm0 9.983a3.981 3.981 0 0 1-3.979-3.976A3.982 3.982 0 0 1 7.01 6.03a3.981 3.981 0 0 1 3.978 3.977 3.981 3.981 0 0 1-3.978 3.976Zm18.974-9.725h-9.471c-.561 0-1.016.454-1.016 1.015v9.468c0 .56.455 1.015 1.016 1.015h9.471c.561 0 1.016-.455 1.016-1.015V5.273c0-.56-.455-1.015-1.016-1.015Zm-1.015 9.467h-7.44V6.288h7.44v7.437ZM23.94 19.71l-1.28 1.28 1.28 1.278a1.015 1.015 0 1 1-1.436 1.436l-1.28-1.28-1.279 1.28a1.016 1.016 0 0 1-1.436-1.436l1.28-1.279-1.28-1.279a1.015 1.015 0 1 1 1.436-1.435l1.28 1.278 1.279-1.278a1.016 1.016 0 0 1 1.436 1.435Zm-13.622-.108-2.996 3.993a1.016 1.016 0 0 1-1.572.065L3.753 21.41a1.015 1.015 0 1 1 1.519-1.348l1.172 1.319 2.25-2.998a1.016 1.016 0 0 1 1.624 1.218Z"/></svg>