<svg xmlns="http://www.w3.org/2000/svg" width="28" height="28" fill="none"><path fill="#FF1E00" d="M26.998 4.242c0-1.945-1.29-3.24-3.23-3.24h-9.77c-3.305 0-6.615-.005-9.92 0-1.671.005-3.053 1.315-3.063 2.965-.02 3.367-.02 6.733 0 10.1.01 1.599 1.386 2.919 2.986 2.93.264 0 .523.01.787 0 .239-.011.37.08.437.324.223.863.69 1.595 1.31 2.224.152.152.162.234-.041.355-.98.574-1.792 1.326-2.397 2.29-.726 1.153-1.127 2.397-1.101 3.768.01.61.385.995.995 1.036.127.01.254.005.38.005h8.425c1.05 0 2.097.005 3.148-.005.69-.005 1.096-.427 1.112-1.117.005-.33-.041-.66-.097-.985-.28-1.64-1.01-3.037-2.26-4.149a7.432 7.432 0 0 0-1.188-.868c-.127-.076-.177-.137-.04-.264a4.912 4.912 0 0 0 1.396-2.315c.061-.219.178-.305.396-.305.442.005.879 0 1.32 0 .366 0 .412.05.417.411.005.828 0 1.66 0 2.488 0 .163.005.32.066.473.28.68 1.117.842 1.655.314.975-.964 1.975-1.904 2.894-2.914.539-.59 1.102-.879 1.894-.777.396.05.808.036 1.209-.071a3.075 3.075 0 0 0 2.28-2.955c.005-3.24 0-6.479 0-9.718Zm-12.172 20.38c.082.29.046.34-.269.34H5.555c-.422 0-.462-.045-.325-.436.665-1.934 1.99-3.138 4.011-3.483 2.483-.421 4.9 1.147 5.585 3.58Zm-7.773-8.636c-.02-1.645 1.34-3.006 3.006-2.996 1.67.01 2.97 1.447 2.94 2.976-.036 1.68-1.28 2.96-2.95 2.96-1.58.06-2.971-1.27-2.996-2.94Zm17.62-1.315a1.008 1.008 0 0 1-.732.294c-.574-.005-1.153.005-1.726-.005a1.379 1.379 0 0 0-1.067.442c-.614.63-1.239 1.249-1.863 1.868-.056.056-.107.163-.198.122-.092-.04-.056-.152-.056-.228-.005-.305 0-.61-.005-.914-.005-.873-.401-1.28-1.275-1.285-.787-.005-1.574 0-2.36 0-.422 0-.422 0-.55-.396-.532-1.655-1.604-2.803-3.26-3.361-2.64-.889-5.574.66-6.346 3.336-.122.416-.122.416-.559.421-.218 0-.442.005-.66-.005a.985.985 0 0 1-.975-.919c-.005-.076-.005-.152-.005-.228V4.17c0-.559.249-.94.7-1.087.174-.056.351-.05.529-.05h19.488c.218 0 .442 0 .645.106.39.208.569.538.569.975V13.838c.005.315-.061.604-.295.833Z"/><path fill="#FF1E00" d="M14.019 5h7.854c.295 0 .57.04.799.255.574.545.366 1.445-.397 1.68-.173.055-.35.065-.529.065h-15.5c-.26 0-.509-.03-.738-.15-.38-.195-.574-.63-.488-1.085a.978.978 0 0 1 .844-.755c.132-.01.27-.01.407-.01h7.748ZM17.994 10.998h-3.832c-.71 0-1.162-.38-1.162-.973 0-.584.482-1.018 1.167-1.023 1.838-.005 3.67 0 5.507 0h2.106c.239 0 .472.03.69.14.401.2.6.623.508 1.092a.96.96 0 0 1-.868.754c-.36.02-.726.01-1.091.01h-3.025Z"/></svg>