<svg xmlns="http://www.w3.org/2000/svg" width="28" height="28" fill="none"><path fill="#FF1E00" d="M25.268 9.039 13.953 20.486l-3.262-3.3c-.396-.401-1.037-.401-1.433 0L1.3 25.236C.66 25.884 1.112 27 2.016 27h23.968c.561 0 1.016-.462 1.016-1.032V9.77c0-.917-1.094-1.378-1.732-.731Zm-.3 15.897H4.477l5.498-5.563 3.263 3.3a1.004 1.004 0 0 0 1.433 0l10.299-10.42v12.683ZM27 2.037v3.918c0 .57-.455 1.032-1.016 1.032a1.024 1.024 0 0 1-1.015-1.032V4.516L14.67 14.941a1.004 1.004 0 0 1-1.434 0l-3.262-3.302-7.24 7.33a1.004 1.004 0 0 1-1.437-.003 1.043 1.043 0 0 1 .003-1.46l7.958-8.055a1.004 1.004 0 0 1 1.433 0l3.262 3.302 9.568-9.684h-1.396a1.024 1.024 0 0 1-1.015-1.032c0-.57.454-1.032 1.015-1.032h3.756A1.021 1.021 0 0 1 27 2.035v.002Z"/></svg>