<svg xmlns="http://www.w3.org/2000/svg" width="28" height="28" fill="none"><path fill="#FF1E00" d="M26.997 10.789c0-.38.01-.764-.005-1.143-.02-.53-.34-.91-.849-1.014a1.992 1.992 0 0 0-.553-.041c-.594.047-1.153-.083-1.722-.25C17.85 6.58 11.838 4.824 5.83 3.073c-.737-.219-1.224.057-1.433.81-.406 1.44-.807 2.879-1.208 4.318-.097.353-.132.38-.498.385-.294.005-.594-.016-.884.057a1.025 1.025 0 0 0-.797.925C1 9.672 1 9.775 1 9.879v13.817c0 .093 0 .192.005.286.015.27.122.498.305.69.274.292.62.328.98.328H25.615c.168 0 .34 0 .508-.031.488-.088.828-.478.863-.987.01-.14.006-.276.006-.416.005-4.26.005-8.516.005-12.777Zm-4.596-.125h2.28c.208 0 .284.11.284.312-.005.39 0 .78 0 1.169 0 .374.005.743 0 1.117-.005.27-.07.322-.31.234-1.203-.447-2.01-1.3-2.447-2.52-.071-.203-.026-.312.193-.312ZM5.276 8.289c.254-.904.513-1.813.757-2.717.066-.24.203-.229.386-.172 1.406.416 2.808.827 4.215 1.237 2.067.603 4.129 1.206 6.196 1.803.091.026.188.057.31.099-.128.067-.224.047-.316.047H5.668c-.06 0-.117-.006-.178 0-.198 0-.269-.094-.213-.297Zm-1.94 2.375c.752.005 1.503 0 2.255 0 .213 0 .27.099.198.296-.447 1.232-1.26 2.089-2.473 2.541-.208.078-.285-.01-.29-.213v-1.17c0-.378.005-.758 0-1.142.005-.213.097-.312.31-.312Zm2.22 12.252c-.361.006-.727 0-1.087 0-.371 0-.742-.005-1.113 0-.223.006-.325-.093-.325-.322.005-.758 0-1.522.005-2.28 0-.26.072-.313.315-.22 1.179.458 2.006 1.28 2.428 2.51.086.255.046.307-.224.312Zm19.41-.322c.004.234-.097.328-.32.328-.742-.006-1.489 0-2.23-.006-.239 0-.29-.072-.203-.311.431-1.221 1.25-2.053 2.432-2.505.254-.099.315-.047.32.24.005.368 0 .742 0 1.111 0 .385-.005.764 0 1.143Zm-.351-4.645c-1.767.442-3.083 1.496-3.956 3.118a5.47 5.47 0 0 0-.518 1.377c-.107.472-.107.472-.594.472H8.409c-.421 0-.421-.005-.533-.42-.65-2.375-2.133-3.898-4.464-4.547-.36-.099-.376-.114-.376-.494 0-.467.006-.935 0-1.403-.005-.228.077-.348.3-.4a5.848 5.848 0 0 0 2.905-1.616 5.997 5.997 0 0 0 1.57-2.717c.03-.11.06-.219.08-.328.041-.254.183-.337.427-.337.493.01.98 0 1.473 0h9.745c.498 0 .488.005.615.483.645 2.359 2.133 3.855 4.444 4.49.35.093.37.108.37.467 0 .457-.01.92.005 1.377.006.28-.091.41-.355.478Z"/><path fill="#FF1E00" d="M13.992 13c-2.148-.01-3.987 1.824-3.992 3.992C9.995 19.182 11.809 21 13.992 21c2.169 0 4.003-1.804 4.008-3.947.005-2.229-1.788-4.043-4.008-4.053Zm.005 5.968c-1.069-.005-1.97-.907-1.965-1.976 0-1.059.917-1.97 1.976-1.965 1.059.005 1.97.917 1.965 1.976-.01 1.074-.912 1.97-1.976 1.965Z"/></svg>