<svg xmlns="http://www.w3.org/2000/svg" width="26" height="24" fill="none"><path fill="#FF1E00" d="m25.23 8.019-3.225-.806V1.016C22.005.455 21.551 0 20.99 0h-3.995c-.561 0-1.016.455-1.016 1.016v1.173L4.638 5.047A6.13 6.13 0 0 0 0 10.997a6.127 6.127 0 0 0 4.202 5.823l1.99 6.463c.132.426.526.717.971.717h3.995c.561 0 1.016-.455 1.016-1.016l-.003-4.152 3.808.953v1.202c0 .561.455 1.016 1.016 1.016h3.995c.56 0 1.015-.455 1.015-1.016V14.79l3.226-.806c.452-.113.769-.52.769-.985V9.004c0-.466-.317-.872-.77-.985Zm-15.088 13.95H7.913l-1.402-4.552 3.628.907.003 3.645Zm-5.001-6.988a4.1 4.1 0 0 1-3.11-3.983 4.101 4.101 0 0 1 3.103-3.981l10.845-2.733V17.69l-10.838-2.71Zm14.833 4.99H18.01V2.032h1.964v17.94Zm3.995-7.765-1.964.49v-3.39l1.964.491v2.409Z"/></svg>