<svg xmlns="http://www.w3.org/2000/svg" width="28" height="28" fill="none"><path fill="#FF1E00" d="M25.984 7.743h-5.839l-2.011-3.259A1.01 1.01 0 0 0 17.275 4h-6.55a1.01 1.01 0 0 0-.859.484L7.854 7.743H2.016C1.455 7.743 1 8.208 1 8.783v13.202c0 .574.455 1.04 1.016 1.04h7.156A6.942 6.942 0 0 0 14 25a6.942 6.942 0 0 0 4.828-1.975h7.156c.561 0 1.016-.466 1.016-1.04V8.782c0-.574-.455-1.04-1.016-1.04Zm-14.7-1.664h5.432l1.027 1.664h-7.486l1.027-1.664ZM14 22.921c-2.715 0-4.977-2.25-4.977-5.094 0-2.809 2.233-5.094 4.977-5.094s4.977 2.285 4.977 5.094c0 2.845-2.264 5.094-4.977 5.094Zm10.969-1.976h-4.657a7.296 7.296 0 0 0 .696-3.118c0-3.956-3.144-7.174-7.008-7.174s-7.008 3.218-7.008 7.174c0 1.092.241 2.155.696 3.118H3.031V9.822H24.97v11.123Z"/></svg>