<svg xmlns="http://www.w3.org/2000/svg" width="28" height="28" fill="none"><path fill="#FF1E00" d="M11 15c0 1.654 1.346 3 3 3s3-1.346 3-3-1.346-3-3-3-3 1.346-3 3Zm3-.978a.979.979 0 0 1 0 1.955.979.979 0 0 1 0-1.955ZM19 11c0 1.654 1.346 3 3 3s3-1.346 3-3-1.346-3-3-3-3 1.346-3 3Zm3-.978a.979.979 0 0 1 0 1.956.979.979 0 0 1 0-1.956Z"/><path fill="#FF1E00" d="M23.98 15H20a3.025 3.025 0 0 0-3.021 3.023V19h-5.958v-.976A3.025 3.025 0 0 0 8 15H4.02A3.025 3.025 0 0 0 1 18.023v3.961c0 .562.455 1.017 1.016 1.017h4.939l-.002.065v2.917c0 .562.455 1.017 1.016 1.017h12.057c.56 0 1.015-.455 1.015-1.017v-2.917l-.001-.065h4.944c.561 0 1.016-.455 1.016-1.017v-3.96A3.025 3.025 0 0 0 23.98 15ZM3.03 20.967v-2.944a.99.99 0 0 1 .99-.99H8a.99.99 0 0 1 .989.99v1.52a4.095 4.095 0 0 0-1.453 1.424H3.031Zm15.98 4H8.984v-1.9c0-1.122.91-2.034 2.03-2.034h5.964c1.12 0 2.031.912 2.031 2.033v1.9Zm5.958-4h-4.511a4.094 4.094 0 0 0-1.447-1.42v-1.524a.99.99 0 0 1 .988-.99h3.98a.99.99 0 0 1 .99.99v2.944ZM6 14c1.654 0 3-1.346 3-3S7.654 8 6 8s-3 1.346-3 3 1.346 3 3 3Zm0-3.978a.979.979 0 0 1 0 1.956.979.979 0 0 1 0-1.956ZM10 7c1.654 0 3-1.346 3-3s-1.346-3-3-3-3 1.346-3 3 1.346 3 3 3Zm0-3.978a.979.979 0 0 1 0 1.955.979.979 0 0 1 0-1.955ZM18 7c1.654 0 3-1.346 3-3s-1.346-3-3-3-3 1.346-3 3 1.346 3 3 3Zm0-3.978a.979.979 0 1 1-.977.977c0-.538.438-.977.977-.977Z"/></svg>