<svg xmlns="http://www.w3.org/2000/svg" width="28" height="28" fill="none"><path fill="#FF1E00" d="M23.826 1H4.133C2.336 1 1.005 2.331 1 4.135v13.79c0 1.747 1.346 3.083 3.098 3.088.873 0 1.741.005 2.615 0 .244 0 .366.072.416.326.285 1.412.925 2.637 1.976 3.648 1.569 1.509 3.432 2.184 5.6 1.976 3.068-.3 5.541-2.55 6.16-5.584.057-.264.163-.37.437-.366.848.016 1.691.005 2.54.005 1.833 0 3.158-1.32 3.158-3.155V4.176C26.995 2.32 25.675 1 23.826 1Zm-7.622 23.458c-.569.305-1.452.519-2.544.519-.422-.006-1.153-.168-1.838-.509-.26-.127-.27-.198-.082-.411 1-1.118 2.458-1.362 3.773-.63.305.168.528.422.762.66.163.158.122.27-.071.371Zm-3.169-4.46c0-.57.406-.966.98-.961.559.005.95.407.95.965 0 .57-.406.966-.98.96-.559-.005-.95-.406-.95-.965Zm5.266 2.499c-.269.457-.269.462-.624.091a5.014 5.014 0 0 0-.849-.721c-.294-.193-.294-.213-.137-.528.91-1.789-.228-4.024-2.214-4.309-1.162-.168-2.153.203-2.864 1.153-.736.986-.827 2.068-.29 3.181.118.239.082.36-.131.493a4.182 4.182 0 0 0-1.006.884c-.142.168-.228.157-.345-.02a4.845 4.845 0 0 1-.818-2.703 4.987 4.987 0 0 1 5.16-5c3.717.117 6.007 4.263 4.118 7.479Zm6.663-9.435v4.745c0 .336-.061.64-.31.885-.203.198-.452.29-.736.29-.89 0-1.778-.006-2.666.004-.224 0-.336-.081-.381-.31a6.834 6.834 0 0 0-1.99-3.699c-1.113-1.082-2.449-1.737-3.997-1.93-1.915-.24-3.646.244-5.17 1.417-1.36 1.047-2.204 2.429-2.575 4.106-.091.406-.091.411-.492.411-.828 0-1.66.005-2.488 0-.727-.005-1.128-.406-1.128-1.138V4.181c0-.757.401-1.149 1.168-1.149h19.592c.314 0 .609.051.848.275.264.244.33.554.33.899-.005 2.947-.005 5.904-.005 8.856Z"/><path fill="#FF1E00" d="M14.004 5.005h5.833c.168 0 .34-.005.503.055.406.15.67.524.66.942-.01.41-.3.794-.69.928-.178.06-.366.07-.55.07H8.242c-.31 0-.61-.035-.858-.244-.345-.29-.467-.709-.325-1.103.147-.399.498-.648.955-.648 1.472-.005 2.944 0 4.412-.005.533.005 1.056.005 1.579.005ZM13.997 11h-5.86c-.167 0-.34 0-.497-.06-.396-.16-.65-.526-.64-.938.01-.41.295-.796.69-.932A1.7 1.7 0 0 1 8.24 9h11.52c.344 0 .674.05.928.31.295.307.391.657.244 1.058a.952.952 0 0 1-.919.627c-1.437.005-2.874.005-4.31.005h-1.706Z"/></svg>