<svg xmlns="http://www.w3.org/2000/svg" width="28" height="28" fill="none"><path fill="#FF1E00" d="M23.953 1H4.047A3.05 3.05 0 0 0 1 4.047v19.906A3.05 3.05 0 0 0 4.047 27h19.906A3.05 3.05 0 0 0 27 23.953V4.047A3.05 3.05 0 0 0 23.953 1Zm1.016 22.953c0 .56-.456 1.016-1.016 1.016h-6.94v-9.716h2.98a1.016 1.016 0 1 0 0-2.032h-2.98v-1.218a2.983 2.983 0 0 1 2.98-2.98 1.016 1.016 0 1 0 0-2.03 5.016 5.016 0 0 0-5.011 5.01v1.218h-1.98a1.016 1.016 0 0 0 0 2.032h1.98v9.716H4.047c-.56 0-1.016-.456-1.016-1.016V4.047c0-.56.456-1.016 1.016-1.016h19.906c.56 0 1.016.456 1.016 1.016v19.906Z"/></svg>