<svg xmlns="http://www.w3.org/2000/svg" width="28" height="28" fill="none"><path fill="#FF1E00" d="M23.695 11.088c-.539-2.51-1.688-4.7-3.421-6.59-1.357-1.473-2.994-2.55-4.809-3.383a1.02 1.02 0 0 0-.762-.071c-.224.071-.402.213-.58.356-2.2 1.757-4.391 3.515-6.587 5.273-.991.793-1.982 1.59-2.979 2.373-.767.6-.68 1.3-.112 1.844 1.25 1.204 2.47 2.438 3.686 3.678.432.442.884.534 1.443.295 1.052-.447 2.115-.874 3.172-1.306.081-.036.183-.122.254-.04.071.08-.02.172-.06.248a20.188 20.188 0 0 1-3.36 4.72c-.91.95-1.907 1.809-2.995 2.545-.442.3-.63.691-.625 1.22.015 1.158.005 2.316.005 3.48 0 .884.392 1.27 1.276 1.27H22.76c.162 0 .32.005.477-.036.504-.142.763-.518.763-1.117V14.04c.005-1.001-.102-1.982-.305-2.952Zm-1.723 13.514c-.005.315-.051.36-.376.36H8.46c-.437 0-.463-.025-.463-.457 0-.396.006-.797 0-1.194 0-.218.092-.335.32-.325h13.105c.086 0 .168.005.254 0 .203-.005.295.092.295.295-.005.442 0 .884 0 1.32Zm0-4.227c0 .58 0 .58-.57.58H10.5c-.066 0-.137.004-.203 0-.076-.006-.173.025-.208-.052-.046-.096.06-.147.117-.198a21.703 21.703 0 0 0 3.344-3.968 21.737 21.737 0 0 0 2.354-4.745c.218-.625.01-1.173-.519-1.382-.3-.116-.6-.08-.89.036-1.418.584-2.836 1.163-4.254 1.748-.26.106-.518.208-.778.315-.157.066-.29.045-.416-.077l-2.318-2.316c-.183-.183-.168-.26.066-.447 1.855-1.489 3.715-2.972 5.576-4.46.818-.656 1.642-1.307 2.455-1.972.203-.168.376-.193.615-.071 2.74 1.427 4.661 3.581 5.764 6.462.524 1.357.763 2.769.758 4.222.01 2.108.01 4.217.01 6.325Z"/></svg>