<svg xmlns="http://www.w3.org/2000/svg" width="28" height="28" fill="none"><path fill="#FF1E00" d="M26.577 7.688a1.029 1.029 0 0 0-.917-.136l-5.224 1.73V7.5c0-1.378-1.125-2.5-2.508-2.5H3.508A2.507 2.507 0 0 0 1 7.5v12C1 20.878 2.125 22 3.507 22h14.421a2.507 2.507 0 0 0 2.508-2.5v-1.783l5.224 1.73c.31.104.652.053.917-.135A.995.995 0 0 0 27 18.5v-10a.995.995 0 0 0-.423-.812Zm-1.608 9.42-5.225-1.73c-.658-.218-1.34.265-1.34.948V19.5a.49.49 0 0 1-.476.5H3.508a.49.49 0 0 1-.477-.5v-12c0-.276.214-.5.476-.5h14.421a.49.49 0 0 1 .477.5v3.174c0 .684.682 1.166 1.34.948l5.224-1.73v7.216Z"/></svg>