<svg xmlns="http://www.w3.org/2000/svg" width="28" height="28" fill="none"><path fill="#FF1E00" d="M24.688 9.395c-.342-.31-.71-.594-1.068-.884-2.972-2.404-5.945-4.813-8.917-7.217-.483-.391-.967-.391-1.446-.005-2.272 1.84-4.544 3.674-6.816 5.514-1.003.808-2.005 1.616-3.008 2.43-.493.401-.574 1.026-.196 1.478.403.478.957.498 1.516.062.07-.056.141-.163.232-.128.116.046.07.178.07.275.006 1.179 0 2.353 0 3.532 0 1.18-.005 2.353 0 3.532.006.56.323.925.872 1.006.192.03.383.041.574.041 2 .005 3.995 0 5.995 0 .444 0 .464.02.464.478 0 .442-.005.879 0 1.321.005.219-.066.356-.277.458a2.79 2.79 0 0 0-1.335 1.296c-.161.33-.363.421-.705.416-1.522-.015-3.038-.01-4.56-.005-.58 0-.992.386-1.033.935-.04.55.318.976.897 1.063.172.025.353.035.53.035 1.435.005 2.87.005 4.307 0 .257 0 .403.076.529.32.554 1.062 1.45 1.647 2.64 1.652 1.173.005 2.085-.539 2.64-1.6.15-.285.327-.377.63-.377 1.425.01 2.85.005 4.281.005.177 0 .353-.005.524-.04.575-.107.887-.519.842-1.103-.04-.519-.449-.88-1.013-.885-.443-.005-.892 0-1.335 0h-3.4c-.172 0-.338-.005-.424-.203a2.973 2.973 0 0 0-1.506-1.535c-.156-.071-.227-.188-.227-.36v-1.576c0-.204.1-.29.297-.29h.303c2.025 0 4.045.005 6.07 0 .877 0 1.24-.376 1.24-1.255v-6.754c0-.122-.06-.295.05-.356.126-.076.212.096.307.162.272.199.555.361.907.3.408-.076.68-.335.801-.726a.903.903 0 0 0-.252-1.012ZM13.983 24.962a.972.972 0 0 1-.963-.966c0-.559.424-.99.968-.986a.948.948 0 0 1 .942.976c-.005.554-.408.97-.947.976Zm6.892-8.513c0 .544 0 .544-.524.544H7.564c-.473 0-.488-.015-.488-.478 0-2.404.005-4.807-.005-7.211 0-.305.1-.498.332-.686C9.5 6.93 11.59 5.233 13.685 3.54c.272-.218.303-.218.58.006 2.075 1.677 4.146 3.359 6.227 5.026.277.223.388.457.383.818-.01 2.353 0 4.706 0 7.06Z"/><path fill="#FF1E00" d="M13.998 9c-1.65 0-3.003 1.375-2.998 3.048.005 1.582 1.388 2.947 2.992 2.952 1.63.005 3.008-1.365 3.008-2.982C17 10.37 15.637 9 13.998 9Zm.005 3.973a.979.979 0 0 1-.974-.96c0-.526.464-.981.989-.981.514 0 .953.455.953.98 0 .526-.439.961-.969.961Z"/></svg>