<svg>
    <symbol id="icon-1" xmlns="http://www.w3.org/2000/svg" width="28" height="28" fill="currentColor">
        <path d="m19.771 16.491 6.81-4.948c.794-.577.384-1.837-.597-1.837h-8.417L14.966 1.7c-.303-.933-1.629-.933-1.932 0l-2.601 8.006H2.016c-.982 0-1.39 1.26-.597 1.837l6.81 4.948-2.602 8.006c-.303.934.77 1.712 1.563 1.136L14 20.685l6.81 4.948c.794.577 1.866-.203 1.562-1.136l-2.6-8.006Zm-5.174 2.117a1.015 1.015 0 0 0-1.194 0l-4.878 3.544 1.863-5.735a1.016 1.016 0 0 0-.369-1.135l-4.877-3.545h6.029c.44 0 .83-.283.966-.702L14 5.301l1.863 5.734c.136.419.526.702.966.702h6.03l-4.878 3.545a1.016 1.016 0 0 0-.37 1.135l1.864 5.735-4.878-3.544Zm.419 4.962v2.414a1.016 1.016 0 1 1-2.032 0V23.57a1.016 1.016 0 1 1 2.032 0ZM26.92 17.61a1.016 1.016 0 0 1-1.28.652l-2.296-.746a1.016 1.016 0 0 1 .628-1.932l2.296.746c.534.174.826.747.652 1.28ZM19.148 4.598l1.42-1.953a1.015 1.015 0 1 1 1.642 1.194l-1.419 1.953a1.016 1.016 0 1 1-1.643-1.194Zm-13.359-.76a1.016 1.016 0 0 1 1.644-1.193l1.419 1.953a1.016 1.016 0 0 1-1.643 1.194L5.789 3.84Zm-.482 12.4a1.016 1.016 0 0 1-.652 1.28l-2.297.745a1.016 1.016 0 0 1-.627-1.932l2.296-.746a1.016 1.016 0 0 1 1.28.652Z"/>
    </symbol>

    <symbol id="icon-2" xmlns="http://www.w3.org/2000/svg" width="28" height="28" fill="currentColor">
        <path d="M26.703 7.29 20.71 1.298a1.015 1.015 0 0 0-1.436 0L14 6.57C8.352.938 8.699 1.22 8.442 1.098A1.023 1.023 0 0 0 8.008 1 7.015 7.015 0 0 0 1 8.012c.002.278.116.532.298.714L6.57 14l-5.273 5.274a1.015 1.015 0 0 0 0 1.436l5.992 5.993c.396.396 1.04.396 1.436 0L14 21.429c4.591 4.59 4.337 4.411 4.692 4.516.271.08.076.024 6.279.041.56 0 1.015-.454 1.015-1.015-.001-6.523.022-6.074-.044-6.288-.132-.436-.095-.204-4.514-4.683l5.274-5.274a1.016 1.016 0 0 0 0-1.436Zm-15.7 14.262-2.277-2.278A1.016 1.016 0 0 0 7.29 20.71l2.278 2.278-1.56 1.56-4.556-4.556 4.556-4.556 4.556 4.556-1.56 1.56Zm12.952 2.403H20.1a4.991 4.991 0 0 1 3.856-3.856v3.856Zm-1.107-5.663a7.039 7.039 0 0 0-4.556 4.556L3.048 7.604a4.985 4.985 0 0 1 4.556-4.556l11.67 11.67 3.574 3.574Zm.14-8.724L20.71 7.29a1.016 1.016 0 0 0-1.436 1.436l2.278 2.278-1.56 1.56-4.556-4.556 4.556-4.556 4.556 4.556-1.56 1.56Z"/>
    </symbol>

    <symbol id="icon-3" xmlns="http://www.w3.org/2000/svg" width="28" height="28" fill="currentColor">
        <path d="M7.01 4A6.015 6.015 0 0 0 1 10.007a6.015 6.015 0 0 0 6.01 6.006 6.015 6.015 0 0 0 6.008-6.006A6.015 6.015 0 0 0 7.01 4Zm0 9.983a3.981 3.981 0 0 1-3.979-3.976A3.982 3.982 0 0 1 7.01 6.03a3.981 3.981 0 0 1 3.978 3.977 3.981 3.981 0 0 1-3.978 3.976Zm18.974-9.725h-9.471c-.561 0-1.016.454-1.016 1.015v9.468c0 .56.455 1.015 1.016 1.015h9.471c.561 0 1.016-.455 1.016-1.015V5.273c0-.56-.455-1.015-1.016-1.015Zm-1.015 9.467h-7.44V6.288h7.44v7.437ZM23.94 19.71l-1.28 1.28 1.28 1.278a1.015 1.015 0 1 1-1.436 1.436l-1.28-1.28-1.279 1.28a1.016 1.016 0 0 1-1.436-1.436l1.28-1.279-1.28-1.279a1.015 1.015 0 1 1 1.436-1.435l1.28 1.278 1.279-1.278a1.016 1.016 0 0 1 1.436 1.435Zm-13.622-.108-2.996 3.993a1.016 1.016 0 0 1-1.572.065L3.753 21.41a1.015 1.015 0 1 1 1.519-1.348l1.172 1.319 2.25-2.998a1.016 1.016 0 0 1 1.624 1.218Z"/>
    </symbol>

    <symbol id="icon-4" xmlns="http://www.w3.org/2000/svg" width="28" height="28" fill="currentColor">
        <path d="M25.984 3H2.016C1.455 3 1 3.452 1 4.01v15.44c0 .557.455 1.009 1.016 1.009h9.039v2.523H8.922c-.561 0-1.016.451-1.016 1.009 0 .557.455 1.009 1.016 1.009h10.156c.561 0 1.016-.452 1.016-1.01 0-.556-.455-1.008-1.016-1.008h-2.133v-2.523h9.04c.56 0 1.015-.452 1.015-1.01V4.01C27 3.452 26.545 3 25.984 3Zm-11.07 19.982h-1.828v-2.523h1.828v2.523ZM24.97 18.44H3.03V5.018H24.97V18.44Z"/>
    </symbol>

    <symbol id="icon-5" xmlns="http://www.w3.org/2000/svg" width="28" height="28" fill="currentColor">
        <path d="M27 25.984c0 .561-.455 1.016-1.016 1.016H14a1.016 1.016 0 1 1 0-2.031h11.984c.561 0 1.016.454 1.016 1.015Zm-1.016-5.01h-7.99a1.016 1.016 0 1 0 0 2.031h7.99a1.016 1.016 0 1 0 0-2.031Zm0-3.995H21.99a1.016 1.016 0 1 0 0 2.032h3.995a1.016 1.016 0 0 0 0-2.032Zm.718-8.253L8.727 26.703c-.19.19-.449.297-.718.297H2.016A1.016 1.016 0 0 1 1 25.984v-5.992c0-.27.107-.527.298-.718L19.274 1.298a1.015 1.015 0 0 1 1.436 0l5.992 5.992c.397.396.397 1.04 0 1.436Zm-2.154-.718-4.556-4.556-16.96 16.96v4.557h4.555L24.548 8.008Z"/>
    </symbol>

    <symbol id="icon-6" xmlns="http://www.w3.org/2000/svg" width="28" height="28" fill="currentColor">
        <path d="M14 11.036a3.458 3.458 0 0 0-3.456 3.452A3.458 3.458 0 0 0 14 17.939a3.458 3.458 0 0 0 3.456-3.451A3.458 3.458 0 0 0 14 11.036Zm0 4.872a1.423 1.423 0 0 1-1.422-1.42 1.423 1.423 0 0 1 2.844 0c0 .783-.638 1.42-1.422 1.42Zm6.895.32v-4.223c0-6.951-5.488-9.951-6.128-10.655a1.016 1.016 0 0 0-1.532-.002c-.646.702-6.13 3.687-6.13 10.657v4.222c-3.44 1.538-5.01 5.776-5.105 8.997a1.017 1.017 0 0 0 1.017 1.045h1.708c.264 0 .518-.102.708-.286l2.91-2.815.03.012c1.476.624 3.023.994 4.61 1.105v1.7a1.016 1.016 0 0 0 2.034 0v-1.7c1.587-.111 3.134-.48 4.61-1.105l.03-.012 2.91 2.815c.19.184.444.286.708.286h1.708c.572 0 1.033-.472 1.017-1.045-.088-3.086-1.57-7.417-5.105-8.997ZM7.101 21.541l-2.788 2.696h-.17c.226-1.5.91-4.242 2.958-5.682v2.986Zm6.897-18.194c1.53 1.188 2.864 2.367 3.823 4.231h-7.647c.96-1.875 2.32-3.07 3.824-4.231Zm4.863 17.95-.026.012a12.344 12.344 0 0 1-3.818.938v-2.189a1.016 1.016 0 0 0-2.034 0v2.189a12.346 12.346 0 0 1-3.818-.938l-.026-.011v-9.294c0-.872.102-1.668.28-2.395h9.16c.179.727.282 1.523.282 2.395v9.293Zm4.826 2.94-2.788-2.696v-2.99c1.768 1.24 2.637 3.573 2.957 5.686h-.17Z"/>
    </symbol>

    <symbol id="icon-7" xmlns="http://www.w3.org/2000/svg" width="28" height="28" fill="currentColor">
        <path d="M26.577 7.688a1.029 1.029 0 0 0-.917-.136l-5.224 1.73V7.5c0-1.378-1.125-2.5-2.508-2.5H3.508A2.507 2.507 0 0 0 1 7.5v12C1 20.878 2.125 22 3.507 22h14.421a2.507 2.507 0 0 0 2.508-2.5v-1.783l5.224 1.73c.31.104.652.053.917-.135A.995.995 0 0 0 27 18.5v-10a.995.995 0 0 0-.423-.812Zm-1.608 9.42-5.225-1.73c-.658-.218-1.34.265-1.34.948V19.5a.49.49 0 0 1-.476.5H3.508a.49.49 0 0 1-.477-.5v-12c0-.276.214-.5.476-.5h14.421a.49.49 0 0 1 .477.5v3.174c0 .684.682 1.166 1.34.948l5.224-1.73v7.216Z"/>
    </symbol>

    <symbol id="icon-8" xmlns="http://www.w3.org/2000/svg" width="28" height="28" fill="currentColor">
        <path d="M25.984 7.743h-5.839l-2.011-3.259A1.01 1.01 0 0 0 17.275 4h-6.55a1.01 1.01 0 0 0-.859.484L7.854 7.743H2.016C1.455 7.743 1 8.208 1 8.783v13.202c0 .574.455 1.04 1.016 1.04h7.156A6.942 6.942 0 0 0 14 25a6.942 6.942 0 0 0 4.828-1.975h7.156c.561 0 1.016-.466 1.016-1.04V8.782c0-.574-.455-1.04-1.016-1.04Zm-14.7-1.664h5.432l1.027 1.664h-7.486l1.027-1.664ZM14 22.921c-2.715 0-4.977-2.25-4.977-5.094 0-2.809 2.233-5.094 4.977-5.094s4.977 2.285 4.977 5.094c0 2.845-2.264 5.094-4.977 5.094Zm10.969-1.976h-4.657a7.296 7.296 0 0 0 .696-3.118c0-3.956-3.144-7.174-7.008-7.174s-7.008 3.218-7.008 7.174c0 1.092.241 2.155.696 3.118H3.031V9.822H24.97v11.123Z"/>
    </symbol>

    <symbol id="icon-9" xmlns="http://www.w3.org/2000/svg" width="28" height="28" fill="currentColor">>
        <path d="M27 14c0-3.472-1.352-6.737-3.808-9.192A12.915 12.915 0 0 0 14 1c-3.3 0-6.41 1.222-8.818 3.45a13.801 13.801 0 0 0-.374.358A12.915 12.915 0 0 0 1 14c0 3.472 1.352 6.737 3.808 9.192A12.915 12.915 0 0 0 14 27c3.298 0 6.408-1.22 8.816-3.447.044-.035.085-.073.123-.114A12.915 12.915 0 0 0 27 14Zm-4.307 6.691-2.644-9.867 4.756 1.274c.108.622.164 1.258.164 1.902 0 2.453-.8 4.782-2.276 6.691Zm-7.308-1.522-5.169-1.385-1.384-5.169 3.783-3.783 5.169 1.385 1.384 5.168-3.783 3.784Zm8.762-9.35-9.873-2.646 3.483-3.484a10.931 10.931 0 0 1 3.999 2.555 10.946 10.946 0 0 1 2.39 3.575Zm-8.699-6.693L8.224 10.35 6.951 5.596A10.886 10.886 0 0 1 14 3.031c.488 0 .972.033 1.448.095ZM5.307 7.31l2.644 9.868-4.756-1.275A11.106 11.106 0 0 1 3.03 14c0-2.453.8-4.782 2.276-6.691ZM3.853 18.182l9.873 2.645-3.483 3.484a10.93 10.93 0 0 1-3.999-2.555 10.952 10.952 0 0 1-2.39-3.574Zm8.699 6.692 7.223-7.223 1.274 4.753A10.886 10.886 0 0 1 14 24.969c-.488 0-.972-.033-1.448-.095Z"/>
    </symbol>

    <symbol id="icon-10" xmlns="http://www.w3.org/2000/svg" width="28" height="28" fill="currentColor">
        <path d="M26.378 16.41c-.701-.402-1.398-.813-2.11-1.2-.276-.147-.379-.345-.332-.64a3.853 3.853 0 0 0 0-1.188c-.041-.27.066-.442.307-.575.722-.4 1.434-.818 2.15-1.23.6-.345.764-.919.42-1.508-.568-.986-1.141-1.966-1.71-2.947-.43-.742-.855-1.483-1.296-2.22-.322-.539-.84-.68-1.408-.401-.107.05-.21.111-.312.172-.666.381-1.332.757-1.992 1.149-.195.111-.348.116-.538-.02a6.854 6.854 0 0 0-1.167-.682c-.226-.101-.313-.254-.308-.497.01-.798.005-1.59 0-2.388 0-.849-.384-1.23-1.229-1.235h-5.735c-.835 0-1.219.386-1.224 1.214-.005.762-.015 1.524.005 2.287.01.33-.092.528-.405.67a5.856 5.856 0 0 0-.993.574c-.246.173-.446.173-.696.026a67.438 67.438 0 0 0-2.126-1.22c-.665-.365-1.167-.218-1.551.432-.984 1.682-1.957 3.374-2.935 5.06-.368.636-.204 1.195.446 1.56.701.402 1.398.813 2.11 1.2.256.137.353.32.312.594a3.857 3.857 0 0 0 0 1.189c.046.29-.061.472-.322.614-.723.397-1.44.813-2.151 1.225-.584.335-.743.914-.405 1.494.574.99 1.147 1.981 1.726 2.972.43.742.855 1.483 1.296 2.22.307.513.824.655 1.367.401.092-.045.184-.091.271-.142.681-.391 1.362-.772 2.033-1.174.226-.132.4-.132.605.026a5.51 5.51 0 0 0 1.054.62c.297.132.39.325.384.635-.015.777-.01 1.56-.005 2.337.005.798.395 1.184 1.199 1.184.962.005 1.93 0 2.893 0h2.868c.835 0 1.224-.386 1.229-1.21.005-.812.005-1.625 0-2.438 0-.224.082-.36.287-.457.399-.188.788-.407 1.152-.66.22-.153.404-.148.635-.016.732.432 1.47.859 2.217 1.265.584.315 1.111.163 1.444-.406 1.004-1.713 1.997-3.43 2.99-5.147.339-.61.17-1.164-.45-1.52Zm-1.971 1.615c-.564.976-1.132 1.951-1.7 2.927-.154.259-.21.269-.466.127-.6-.34-1.199-.686-1.798-1.027-.645-.365-.983-.33-1.557.143-.599.488-1.27.853-1.987 1.138-.665.264-.855.543-.855 1.25v2.032c0 .31-.051.356-.358.36-.574.006-1.142 0-1.716 0-.553 0-1.111.006-1.664 0-.307 0-.353-.05-.359-.36-.005-.711 0-1.423-.005-2.134-.005-.59-.245-.925-.804-1.133A7.497 7.497 0 0 1 9.08 20.18c-.6-.473-.897-.498-1.557-.117-.589.34-1.183.675-1.772 1.016-.261.147-.317.137-.466-.122-.568-.976-1.137-1.946-1.7-2.927-.159-.274-.138-.325.133-.477.64-.371 1.285-.737 1.926-1.108.41-.233.62-.645.537-1.113a7.8 7.8 0 0 1-.005-2.626c.082-.503-.107-.894-.558-1.153l-1.905-1.098c-.277-.157-.297-.208-.138-.477a861.49 861.49 0 0 1 1.7-2.927c.153-.264.21-.274.486-.112.594.336 1.183.676 1.772 1.016.635.361.948.336 1.516-.111a8.067 8.067 0 0 1 2.074-1.19c.6-.233.809-.538.809-1.178V3.418c0-.34.046-.386.384-.386h3.329c.338 0 .384.046.384.386.005.702 0 1.408.005 2.109.005.59.246.925.804 1.133.748.28 1.444.655 2.053 1.173.482.412.968.478 1.521.143.59-.356 1.194-.691 1.793-1.032.292-.167.338-.157.502.127.563.966 1.126 1.936 1.69 2.901.158.275.138.326-.134.483l-1.905 1.098c-.46.264-.645.655-.558 1.173a7.782 7.782 0 0 1-.005 2.601c-.082.473.097.854.517 1.098.645.38 1.296.752 1.946 1.123.287.157.307.208.149.477Z"/>
        <path d="M13.936 20c-3.084 0-5.566-2.297-5.898-5.303-.346-3.163 1.688-6.023 4.703-6.603.321-.062.648-.099.974-.094.613.01 1.045.434 1.055 1.024.01.605-.422 1.038-1.045 1.06a3.774 3.774 0 0 0-3.471 2.515c-.583 1.602-.176 3.387 1.26 4.525a3.594 3.594 0 0 0 4.552-.031 4.01 4.01 0 0 0 1.02-1.242c.16-.303.387-.522.728-.58.422-.073.764.068 1.005.433.246.366.226.757.03 1.138a5.81 5.81 0 0 1-1.562 1.916c-1.04.814-2.215 1.226-3.35 1.242Z"/>
        <path d="M13.973 16a1.98 1.98 0 0 1-1.827-1.168c-.296-.653-.133-1.466.404-1.99a2.019 2.019 0 0 1 2.127-.438c.217.084.384.06.576-.047.744-.415 1.488-.822 2.236-1.219.448-.238.965-.159 1.26.164.424.462.301 1.107-.3 1.452-.63.36-1.275.7-1.915 1.05-.07.038-.138.085-.212.118-.266.107-.38.294-.433.57-.173.882-.975 1.503-1.916 1.508Z"/>
    </symbol>

    <symbol id="icon-11" xmlns="http://www.w3.org/2000/svg" width="28" height="28" fill="currentColor">
        <path d="M23.953 1H4.047A3.05 3.05 0 0 0 1 4.047v19.906A3.05 3.05 0 0 0 4.047 27h19.906A3.05 3.05 0 0 0 27 23.953V4.047A3.05 3.05 0 0 0 23.953 1Zm1.016 22.953c0 .56-.456 1.016-1.016 1.016h-6.94v-9.716h2.98a1.016 1.016 0 1 0 0-2.032h-2.98v-1.218a2.983 2.983 0 0 1 2.98-2.98 1.016 1.016 0 1 0 0-2.03 5.016 5.016 0 0 0-5.011 5.01v1.218h-1.98a1.016 1.016 0 0 0 0 2.032h1.98v9.716H4.047c-.56 0-1.016-.456-1.016-1.016V4.047c0-.56.456-1.016 1.016-1.016h19.906c.56 0 1.016.456 1.016 1.016v19.906Z"/>
    </symbol>

    <symbol id="icon-12" xmlns="http://www.w3.org/2000/svg" width="28" height="28" fill="currentColor">
        <path d="M25.958 17.26c-.137-.005-.269-.005-.406-.005-.468 0-.483-.015-.483-.488V3.613c0-.087.005-.168 0-.254-.01-.224.087-.33.315-.325.219.005.442.01.66-.005.514-.036.91-.432.946-.93.04-.493-.275-.92-.772-1.052-.168-.05-.346-.046-.524-.046H2.38c-.137 0-.27-.005-.407.005-.574.051-.97.468-.97 1.011 0 .55.401.966.975 1.006.194.016.392.006.585.01.31.006.355.051.36.351v13.333c0 .076-.005.152 0 .228.006.214-.096.31-.304.305-.24 0-.478-.01-.712.015a.998.998 0 0 0-.904.945 1 1 0 0 0 .787 1.042c.148.036.305.03.453.03h10.314c.39.006.426.036.426.417 0 .29-.01.574.005.864.01.254-.076.447-.259.63-.97.955-1.93 1.926-2.896 2.886-.406.406-.818.808-1.22 1.224-.4.417-.385 1.001.036 1.403.427.406 1.011.391 1.474-.066.874-.864 1.737-1.733 2.606-2.602.056-.056.107-.162.198-.127.092.036.056.153.056.229.005.594 0 1.184.005 1.778.005.366.117.686.437.9.34.228.701.238 1.062.05.35-.177.513-.487.523-.868.016-.585.006-1.17.01-1.753 0-.112-.055-.28.051-.33.122-.057.188.106.27.187.818.813 1.63 1.626 2.444 2.44a2.1 2.1 0 0 0 .325.279c.421.28.935.208 1.29-.168a.95.95 0 0 0 .056-1.275 4.302 4.302 0 0 0-.401-.458c-1.082-1.087-2.134-2.205-3.262-3.236-.61-.554-.884-1.138-.788-1.946.056-.432.03-.463.468-.463h7.164c1.102 0 2.2.005 3.302-.005.62-.005 1.057-.421 1.062-1 .005-.565-.417-.981-1.042-1.012Zm-2.916-.488c0 .468-.015.483-.488.483H5.443c-.473 0-.488-.015-.488-.482V3.52c0-.467.015-.482.488-.482H22.554c.473 0 .488.015.488.482v13.252Z"/>
        <path d="M10 14.704c.105-2.224.9-4.228 2.49-5.9 1.521-1.602 3.387-2.516 5.573-2.772.355-.04.715-.04 1.075-.015.46.03.84.442.86.924.026.472-.314.924-.77 1.01a5.83 5.83 0 0 1-.595.065c-2.55.176-4.456 1.396-5.742 3.595-.595 1.02-.86 2.134-.89 3.31-.015.672-.405 1.089-1.02 1.079-.596-.005-.971-.432-.981-1.095v-.2ZM17.172 15.998c-.475 0-.799-.17-1-.542-.207-.394-.19-.795.034-1.179.128-.22.33-.383.503-.564.134-.135.134-.254 0-.383-.146-.147-.297-.288-.43-.446a1.138 1.138 0 0 1 .06-1.557c.409-.395 1.085-.39 1.526.005.145.13.296.254.436.395.14.136.251.119.385-.011.168-.164.33-.338.515-.474.514-.372 1.089-.31 1.508.152.363.401.363 1.044-.017 1.495-.134.158-.28.3-.424.446-.123.124-.123.243 0 .361.1.096.206.192.307.288.52.502.57 1.19.112 1.681-.425.457-1.151.435-1.649-.05-.508-.503-.508-.503-1.028-.006-.251.237-.525.412-.838.389ZM10.503 7C9.664 7 9 6.56 9 6.002S9.664 5.004 10.497 5c.839 0 1.503.44 1.503.998.006.558-.664 1.002-1.497 1.002Z"/>
    </symbol>

    <symbol id="icon-13" xmlns="http://www.w3.org/2000/svg" width="28" height="28" fill="currentColor">
        <path d="M23.695 11.088c-.539-2.51-1.688-4.7-3.421-6.59-1.357-1.473-2.994-2.55-4.809-3.383a1.02 1.02 0 0 0-.762-.071c-.224.071-.402.213-.58.356-2.2 1.757-4.391 3.515-6.587 5.273-.991.793-1.982 1.59-2.979 2.373-.767.6-.68 1.3-.112 1.844 1.25 1.204 2.47 2.438 3.686 3.678.432.442.884.534 1.443.295 1.052-.447 2.115-.874 3.172-1.306.081-.036.183-.122.254-.04.071.08-.02.172-.06.248a20.188 20.188 0 0 1-3.36 4.72c-.91.95-1.907 1.809-2.995 2.545-.442.3-.63.691-.625 1.22.015 1.158.005 2.316.005 3.48 0 .884.392 1.27 1.276 1.27H22.76c.162 0 .32.005.477-.036.504-.142.763-.518.763-1.117V14.04c.005-1.001-.102-1.982-.305-2.952Zm-1.723 13.514c-.005.315-.051.36-.376.36H8.46c-.437 0-.463-.025-.463-.457 0-.396.006-.797 0-1.194 0-.218.092-.335.32-.325h13.105c.086 0 .168.005.254 0 .203-.005.295.092.295.295-.005.442 0 .884 0 1.32Zm0-4.227c0 .58 0 .58-.57.58H10.5c-.066 0-.137.004-.203 0-.076-.006-.173.025-.208-.052-.046-.096.06-.147.117-.198a21.703 21.703 0 0 0 3.344-3.968 21.737 21.737 0 0 0 2.354-4.745c.218-.625.01-1.173-.519-1.382-.3-.116-.6-.08-.89.036-1.418.584-2.836 1.163-4.254 1.748-.26.106-.518.208-.778.315-.157.066-.29.045-.416-.077l-2.318-2.316c-.183-.183-.168-.26.066-.447 1.855-1.489 3.715-2.972 5.576-4.46.818-.656 1.642-1.307 2.455-1.972.203-.168.376-.193.615-.071 2.74 1.427 4.661 3.581 5.764 6.462.524 1.357.763 2.769.758 4.222.01 2.108.01 4.217.01 6.325Z"/>
    </symbol>

    <symbol id="icon-14" xmlns="http://www.w3.org/2000/svg" width="26" height="24" fill="currentColor">
        <path d="m25.23 8.019-3.225-.806V1.016C22.005.455 21.551 0 20.99 0h-3.995c-.561 0-1.016.455-1.016 1.016v1.173L4.638 5.047A6.13 6.13 0 0 0 0 10.997a6.127 6.127 0 0 0 4.202 5.823l1.99 6.463c.132.426.526.717.971.717h3.995c.561 0 1.016-.455 1.016-1.016l-.003-4.152 3.808.953v1.202c0 .561.455 1.016 1.016 1.016h3.995c.56 0 1.015-.455 1.015-1.016V14.79l3.226-.806c.452-.113.769-.52.769-.985V9.004c0-.466-.317-.872-.77-.985Zm-15.088 13.95H7.913l-1.402-4.552 3.628.907.003 3.645Zm-5.001-6.988a4.1 4.1 0 0 1-3.11-3.983 4.101 4.101 0 0 1 3.103-3.981l10.845-2.733V17.69l-10.838-2.71Zm14.833 4.99H18.01V2.032h1.964v17.94Zm3.995-7.765-1.964.49v-3.39l1.964.491v2.409Z"/>
    </symbol>

    <symbol id="icon-15" xmlns="http://www.w3.org/2000/svg" width="28" height="28" fill="currentColor">
        <path d="M26.998 4.242c0-1.945-1.29-3.24-3.23-3.24h-9.77c-3.305 0-6.615-.005-9.92 0-1.671.005-3.053 1.315-3.063 2.965-.02 3.367-.02 6.733 0 10.1.01 1.599 1.386 2.919 2.986 2.93.264 0 .523.01.787 0 .239-.011.37.08.437.324.223.863.69 1.595 1.31 2.224.152.152.162.234-.041.355-.98.574-1.792 1.326-2.397 2.29-.726 1.153-1.127 2.397-1.101 3.768.01.61.385.995.995 1.036.127.01.254.005.38.005h8.425c1.05 0 2.097.005 3.148-.005.69-.005 1.096-.427 1.112-1.117.005-.33-.041-.66-.097-.985-.28-1.64-1.01-3.037-2.26-4.149a7.432 7.432 0 0 0-1.188-.868c-.127-.076-.177-.137-.04-.264a4.912 4.912 0 0 0 1.396-2.315c.061-.219.178-.305.396-.305.442.005.879 0 1.32 0 .366 0 .412.05.417.411.005.828 0 1.66 0 2.488 0 .163.005.32.066.473.28.68 1.117.842 1.655.314.975-.964 1.975-1.904 2.894-2.914.539-.59 1.102-.879 1.894-.777.396.05.808.036 1.209-.071a3.075 3.075 0 0 0 2.28-2.955c.005-3.24 0-6.479 0-9.718Zm-12.172 20.38c.082.29.046.34-.269.34H5.555c-.422 0-.462-.045-.325-.436.665-1.934 1.99-3.138 4.011-3.483 2.483-.421 4.9 1.147 5.585 3.58Zm-7.773-8.636c-.02-1.645 1.34-3.006 3.006-2.996 1.67.01 2.97 1.447 2.94 2.976-.036 1.68-1.28 2.96-2.95 2.96-1.58.06-2.971-1.27-2.996-2.94Zm17.62-1.315a1.008 1.008 0 0 1-.732.294c-.574-.005-1.153.005-1.726-.005a1.379 1.379 0 0 0-1.067.442c-.614.63-1.239 1.249-1.863 1.868-.056.056-.107.163-.198.122-.092-.04-.056-.152-.056-.228-.005-.305 0-.61-.005-.914-.005-.873-.401-1.28-1.275-1.285-.787-.005-1.574 0-2.36 0-.422 0-.422 0-.55-.396-.532-1.655-1.604-2.803-3.26-3.361-2.64-.889-5.574.66-6.346 3.336-.122.416-.122.416-.559.421-.218 0-.442.005-.66-.005a.985.985 0 0 1-.975-.919c-.005-.076-.005-.152-.005-.228V4.17c0-.559.249-.94.7-1.087.174-.056.351-.05.529-.05h19.488c.218 0 .442 0 .645.106.39.208.569.538.569.975V13.838c.005.315-.061.604-.295.833Z"/>
        <path d="M14.019 5h7.854c.295 0 .57.04.799.255.574.545.366 1.445-.397 1.68-.173.055-.35.065-.529.065h-15.5c-.26 0-.509-.03-.738-.15-.38-.195-.574-.63-.488-1.085a.978.978 0 0 1 .844-.755c.132-.01.27-.01.407-.01h7.748ZM17.994 10.998h-3.832c-.71 0-1.162-.38-1.162-.973 0-.584.482-1.018 1.167-1.023 1.838-.005 3.67 0 5.507 0h2.106c.239 0 .472.03.69.14.401.2.6.623.508 1.092a.96.96 0 0 1-.868.754c-.36.02-.726.01-1.091.01h-3.025Z"/>
    </symbol>

    <symbol id="icon-16" xmlns="http://www.w3.org/2000/svg" width="28" height="28" fill="currentColor">
        <path d="M27 25.703V11.03c0-.101 0-.203-.005-.304a1.046 1.046 0 0 0-.36-.762c-1.052-.914-2.108-1.834-3.17-2.738-.223-.193-.334-.39-.334-.695.01-1.433.005-2.86.005-4.292C23.14 1.376 22.77 1 21.912 1H6.098c-.858 0-1.234.376-1.234 1.244 0 1.438-.005 2.875.006 4.317 0 .28-.102.472-.31.655-1.006.864-1.996 1.752-3.017 2.606-.396.325-.543.706-.543 1.208.01 4.876.005 9.746.005 14.622 0 .127-.005.254.01.38.051.57.447.94 1.02.966.118.005.24 0 .356 0h23.223c.137 0 .269.005.406-.005.584-.046.96-.447.975-1.031.005-.092.005-.173.005-.26ZM23.191 9.74c.066-.035.107.026.153.061.31.264.614.528.919.787.096.087.101.168 0 .255l-.904.73c-.152.123-.213.057-.213-.106-.005-.269 0-.538 0-.807v-.757c0-.061-.015-.132.045-.163ZM6.896 3.438c0-.366.04-.407.411-.407h13.345c.432 0 .457.026.457.463 0 3.174 0 6.343.005 9.517 0 .28-.086.472-.304.65-1.285 1.031-2.56 2.077-3.84 3.124-.34.279-.34.279-.675.005l-1.554-1.265c-.502-.406-1-.396-1.493.015-.548.452-1.101.894-1.65 1.346-.152.127-.274.122-.427 0-1.086-.889-2.178-1.772-3.265-2.661-.249-.203-.497-.412-.751-.604-.193-.148-.264-.325-.264-.57.005-3.204.005-6.409.005-9.613Zm-3.159 7.17c.315-.268.625-.543.934-.812.036-.03.077-.081.133-.06.07.025.055.096.06.152v1.549c0 .066.01.142-.055.183-.072.045-.127-.02-.178-.061-.295-.24-.59-.483-.879-.722-.091-.07-.111-.147-.015-.228ZM3.29 23.642c-.056.045-.117.132-.193.101-.096-.035-.06-.147-.06-.228V13.392c0-.086 0-.168.004-.254.005-.056-.01-.127.056-.157.066-.026.112.03.153.066.467.375.934.756 1.396 1.137 1.62 1.32 3.24 2.636 4.855 3.957.254.208.254.233.005.436a3610.751 3610.751 0 0 1-5.073 4.134c-.381.31-.762.625-1.143.93Zm19.698 1.26c-.025.09-.127.06-.198.06-.243.005-.492 0-.736 0H5.332c-.107 0-.264.051-.3-.05-.04-.107.117-.163.198-.23l4.682-3.808c1.26-1.026 2.519-2.052 3.778-3.073.32-.259.325-.249.635.005 2.554 2.083 5.114 4.165 7.668 6.247l.868.701c.056.04.148.071.127.147Zm1.98-6.517v4.998c0 .06.006.116 0 .177-.004.066.021.153-.05.183-.076.036-.122-.045-.168-.086-1.345-1.092-2.691-2.189-4.037-3.28-.736-.6-1.472-1.194-2.204-1.799-.248-.208-.248-.223.006-.431l4.189-3.413c.67-.544 1.335-1.092 2.006-1.63.06-.051.117-.158.208-.107.081.045.046.152.046.239.005 1.711.005 3.428.005 5.15Z"/>
        <path d="M15.293 12.813c-.275.02-.514-.12-.733-.333L13.06 11c-.224-.224-.25-.218-.443.052l-1.707 2.427a1.26 1.26 0 0 1-.383.374c-.423.244-.922.182-1.243-.156-.316-.338-.387-.868-.122-1.268.428-.644.876-1.278 1.32-1.912.428-.614.86-1.222 1.294-1.835.433-.623 1.07-.707 1.641-.213.071.062.138.13.204.198.433.426.84.878 1.3 1.278.285.25.275.26.504-.062.566-.811 1.136-1.617 1.702-2.427.168-.24.382-.39.663-.437.433-.073.795.073 1.034.447.245.39.23.795-.025 1.17-.434.639-.887 1.267-1.33 1.901-.398.572-.8 1.139-1.198 1.71-.285.41-.54.567-.978.567Z"/>
    </symbol>

    <symbol id="icon-17" xmlns="http://www.w3.org/2000/svg" width="28" height="28" fill="currentColor">
        <path d="M27 6.002c0-.576-.486-1.014-1.01-1.002H6.01c-.898 0-1.35 1.082-.71 1.71l7.347 7.218-7.354 7.369c-.63.63-.177 1.703.717 1.703h19.98c.553 0 1.008-.447 1.01-.997V6.002Zm-2.018 13.565-5.628-5.64L24.982 8.4v11.167ZM8.462 7h15.077l-7.538 7.406L8.46 7Zm5.618 8.336 1.21 1.188a1.016 1.016 0 0 0 1.42 0l1.21-1.188L23.575 21H8.427l5.653-5.664Z"/>
        <path d="M3.103 11h2.794C6.507 11 7 10.552 7 10s-.494-1-1.103-1H3.103C2.493 9 2 9.448 2 10s.494 1 1.103 1ZM6 14c0-.552-.494-1-1.103-1H2.103C1.493 13 1 13.448 1 14s.494 1 1.103 1h2.794C5.506 15 6 14.552 6 14ZM7 18c0-.552-.494-1-1.103-1H3.103C2.493 17 2 17.448 2 18s.494 1 1.103 1h2.794C6.507 19 7 18.552 7 18Z"/>
    </symbol>

    <symbol id="icon-18" xmlns="http://www.w3.org/2000/svg" width="28" height="28" fill="currentColor">
        <path d="M26.997 10.789c0-.38.01-.764-.005-1.143-.02-.53-.34-.91-.849-1.014a1.992 1.992 0 0 0-.553-.041c-.594.047-1.153-.083-1.722-.25C17.85 6.58 11.838 4.824 5.83 3.073c-.737-.219-1.224.057-1.433.81-.406 1.44-.807 2.879-1.208 4.318-.097.353-.132.38-.498.385-.294.005-.594-.016-.884.057a1.025 1.025 0 0 0-.797.925C1 9.672 1 9.775 1 9.879v13.817c0 .093 0 .192.005.286.015.27.122.498.305.69.274.292.62.328.98.328H25.615c.168 0 .34 0 .508-.031.488-.088.828-.478.863-.987.01-.14.006-.276.006-.416.005-4.26.005-8.516.005-12.777Zm-4.596-.125h2.28c.208 0 .284.11.284.312-.005.39 0 .78 0 1.169 0 .374.005.743 0 1.117-.005.27-.07.322-.31.234-1.203-.447-2.01-1.3-2.447-2.52-.071-.203-.026-.312.193-.312ZM5.276 8.289c.254-.904.513-1.813.757-2.717.066-.24.203-.229.386-.172 1.406.416 2.808.827 4.215 1.237 2.067.603 4.129 1.206 6.196 1.803.091.026.188.057.31.099-.128.067-.224.047-.316.047H5.668c-.06 0-.117-.006-.178 0-.198 0-.269-.094-.213-.297Zm-1.94 2.375c.752.005 1.503 0 2.255 0 .213 0 .27.099.198.296-.447 1.232-1.26 2.089-2.473 2.541-.208.078-.285-.01-.29-.213v-1.17c0-.378.005-.758 0-1.142.005-.213.097-.312.31-.312Zm2.22 12.252c-.361.006-.727 0-1.087 0-.371 0-.742-.005-1.113 0-.223.006-.325-.093-.325-.322.005-.758 0-1.522.005-2.28 0-.26.072-.313.315-.22 1.179.458 2.006 1.28 2.428 2.51.086.255.046.307-.224.312Zm19.41-.322c.004.234-.097.328-.32.328-.742-.006-1.489 0-2.23-.006-.239 0-.29-.072-.203-.311.431-1.221 1.25-2.053 2.432-2.505.254-.099.315-.047.32.24.005.368 0 .742 0 1.111 0 .385-.005.764 0 1.143Zm-.351-4.645c-1.767.442-3.083 1.496-3.956 3.118a5.47 5.47 0 0 0-.518 1.377c-.107.472-.107.472-.594.472H8.409c-.421 0-.421-.005-.533-.42-.65-2.375-2.133-3.898-4.464-4.547-.36-.099-.376-.114-.376-.494 0-.467.006-.935 0-1.403-.005-.228.077-.348.3-.4a5.848 5.848 0 0 0 2.905-1.616 5.997 5.997 0 0 0 1.57-2.717c.03-.11.06-.219.08-.328.041-.254.183-.337.427-.337.493.01.98 0 1.473 0h9.745c.498 0 .488.005.615.483.645 2.359 2.133 3.855 4.444 4.49.35.093.37.108.37.467 0 .457-.01.92.005 1.377.006.28-.091.41-.355.478Z"/>
        <path d="M13.992 13c-2.148-.01-3.987 1.824-3.992 3.992C9.995 19.182 11.809 21 13.992 21c2.169 0 4.003-1.804 4.008-3.947.005-2.229-1.788-4.043-4.008-4.053Zm.005 5.968c-1.069-.005-1.97-.907-1.965-1.976 0-1.059.917-1.97 1.976-1.965 1.059.005 1.97.917 1.965 1.976-.01 1.074-.912 1.97-1.976 1.965Z"/>
    </symbol>

    <symbol id="icon-19" xmlns="http://www.w3.org/2000/svg" width="28" height="28" fill="currentColor">
        <path d="M24.688 9.395c-.342-.31-.71-.594-1.068-.884-2.972-2.404-5.945-4.813-8.917-7.217-.483-.391-.967-.391-1.446-.005-2.272 1.84-4.544 3.674-6.816 5.514-1.003.808-2.005 1.616-3.008 2.43-.493.401-.574 1.026-.196 1.478.403.478.957.498 1.516.062.07-.056.141-.163.232-.128.116.046.07.178.07.275.006 1.179 0 2.353 0 3.532 0 1.18-.005 2.353 0 3.532.006.56.323.925.872 1.006.192.03.383.041.574.041 2 .005 3.995 0 5.995 0 .444 0 .464.02.464.478 0 .442-.005.879 0 1.321.005.219-.066.356-.277.458a2.79 2.79 0 0 0-1.335 1.296c-.161.33-.363.421-.705.416-1.522-.015-3.038-.01-4.56-.005-.58 0-.992.386-1.033.935-.04.55.318.976.897 1.063.172.025.353.035.53.035 1.435.005 2.87.005 4.307 0 .257 0 .403.076.529.32.554 1.062 1.45 1.647 2.64 1.652 1.173.005 2.085-.539 2.64-1.6.15-.285.327-.377.63-.377 1.425.01 2.85.005 4.281.005.177 0 .353-.005.524-.04.575-.107.887-.519.842-1.103-.04-.519-.449-.88-1.013-.885-.443-.005-.892 0-1.335 0h-3.4c-.172 0-.338-.005-.424-.203a2.973 2.973 0 0 0-1.506-1.535c-.156-.071-.227-.188-.227-.36v-1.576c0-.204.1-.29.297-.29h.303c2.025 0 4.045.005 6.07 0 .877 0 1.24-.376 1.24-1.255v-6.754c0-.122-.06-.295.05-.356.126-.076.212.096.307.162.272.199.555.361.907.3.408-.076.68-.335.801-.726a.903.903 0 0 0-.252-1.012ZM13.983 24.962a.972.972 0 0 1-.963-.966c0-.559.424-.99.968-.986a.948.948 0 0 1 .942.976c-.005.554-.408.97-.947.976Zm6.892-8.513c0 .544 0 .544-.524.544H7.564c-.473 0-.488-.015-.488-.478 0-2.404.005-4.807-.005-7.211 0-.305.1-.498.332-.686C9.5 6.93 11.59 5.233 13.685 3.54c.272-.218.303-.218.58.006 2.075 1.677 4.146 3.359 6.227 5.026.277.223.388.457.383.818-.01 2.353 0 4.706 0 7.06Z"/>
        <path d="M13.998 9c-1.65 0-3.003 1.375-2.998 3.048.005 1.582 1.388 2.947 2.992 2.952 1.63.005 3.008-1.365 3.008-2.982C17 10.37 15.637 9 13.998 9Zm.005 3.973a.979.979 0 0 1-.974-.96c0-.526.464-.981.989-.981.514 0 .953.455.953.98 0 .526-.439.961-.969.961Z"/>
    </symbol>

    <symbol id="icon-20" xmlns="http://www.w3.org/2000/svg" width="28" height="28" fill="currentColor">
        <path d="M25.268 9.039 13.953 20.486l-3.262-3.3c-.396-.401-1.037-.401-1.433 0L1.3 25.236C.66 25.884 1.112 27 2.016 27h23.968c.561 0 1.016-.462 1.016-1.032V9.77c0-.917-1.094-1.378-1.732-.731Zm-.3 15.897H4.477l5.498-5.563 3.263 3.3a1.004 1.004 0 0 0 1.433 0l10.299-10.42v12.683ZM27 2.037v3.918c0 .57-.455 1.032-1.016 1.032a1.024 1.024 0 0 1-1.015-1.032V4.516L14.67 14.941a1.004 1.004 0 0 1-1.434 0l-3.262-3.302-7.24 7.33a1.004 1.004 0 0 1-1.437-.003 1.043 1.043 0 0 1 .003-1.46l7.958-8.055a1.004 1.004 0 0 1 1.433 0l3.262 3.302 9.568-9.684h-1.396a1.024 1.024 0 0 1-1.015-1.032c0-.57.454-1.032 1.015-1.032h3.756A1.021 1.021 0 0 1 27 2.035v.002Z"/>
    </symbol>

    <symbol id="icon-21" xmlns="http://www.w3.org/2000/svg" width="28" height="28" fill="currentColor">
        <path d="M11 15c0 1.654 1.346 3 3 3s3-1.346 3-3-1.346-3-3-3-3 1.346-3 3Zm3-.978a.979.979 0 0 1 0 1.955.979.979 0 0 1 0-1.955ZM19 11c0 1.654 1.346 3 3 3s3-1.346 3-3-1.346-3-3-3-3 1.346-3 3Zm3-.978a.979.979 0 0 1 0 1.956.979.979 0 0 1 0-1.956Z"/>
        <path d="M23.98 15H20a3.025 3.025 0 0 0-3.021 3.023V19h-5.958v-.976A3.025 3.025 0 0 0 8 15H4.02A3.025 3.025 0 0 0 1 18.023v3.961c0 .562.455 1.017 1.016 1.017h4.939l-.002.065v2.917c0 .562.455 1.017 1.016 1.017h12.057c.56 0 1.015-.455 1.015-1.017v-2.917l-.001-.065h4.944c.561 0 1.016-.455 1.016-1.017v-3.96A3.025 3.025 0 0 0 23.98 15ZM3.03 20.967v-2.944a.99.99 0 0 1 .99-.99H8a.99.99 0 0 1 .989.99v1.52a4.095 4.095 0 0 0-1.453 1.424H3.031Zm15.98 4H8.984v-1.9c0-1.122.91-2.034 2.03-2.034h5.964c1.12 0 2.031.912 2.031 2.033v1.9Zm5.958-4h-4.511a4.094 4.094 0 0 0-1.447-1.42v-1.524a.99.99 0 0 1 .988-.99h3.98a.99.99 0 0 1 .99.99v2.944ZM6 14c1.654 0 3-1.346 3-3S7.654 8 6 8s-3 1.346-3 3 1.346 3 3 3Zm0-3.978a.979.979 0 0 1 0 1.956.979.979 0 0 1 0-1.956ZM10 7c1.654 0 3-1.346 3-3s-1.346-3-3-3-3 1.346-3 3 1.346 3 3 3Zm0-3.978a.979.979 0 0 1 0 1.955.979.979 0 0 1 0-1.955ZM18 7c1.654 0 3-1.346 3-3s-1.346-3-3-3-3 1.346-3 3 1.346 3 3 3Zm0-3.978a.979.979 0 1 1-.977.977c0-.538.438-.977.977-.977Z"/>
    </symbol>

    <symbol id="icon-22" xmlns="http://www.w3.org/2000/svg" width="28" height="28" fill="currentColor">
        <path d="M23.826 1H4.133C2.336 1 1.005 2.331 1 4.135v13.79c0 1.747 1.346 3.083 3.098 3.088.873 0 1.741.005 2.615 0 .244 0 .366.072.416.326.285 1.412.925 2.637 1.976 3.648 1.569 1.509 3.432 2.184 5.6 1.976 3.068-.3 5.541-2.55 6.16-5.584.057-.264.163-.37.437-.366.848.016 1.691.005 2.54.005 1.833 0 3.158-1.32 3.158-3.155V4.176C26.995 2.32 25.675 1 23.826 1Zm-7.622 23.458c-.569.305-1.452.519-2.544.519-.422-.006-1.153-.168-1.838-.509-.26-.127-.27-.198-.082-.411 1-1.118 2.458-1.362 3.773-.63.305.168.528.422.762.66.163.158.122.27-.071.371Zm-3.169-4.46c0-.57.406-.966.98-.961.559.005.95.407.95.965 0 .57-.406.966-.98.96-.559-.005-.95-.406-.95-.965Zm5.266 2.499c-.269.457-.269.462-.624.091a5.014 5.014 0 0 0-.849-.721c-.294-.193-.294-.213-.137-.528.91-1.789-.228-4.024-2.214-4.309-1.162-.168-2.153.203-2.864 1.153-.736.986-.827 2.068-.29 3.181.118.239.082.36-.131.493a4.182 4.182 0 0 0-1.006.884c-.142.168-.228.157-.345-.02a4.845 4.845 0 0 1-.818-2.703 4.987 4.987 0 0 1 5.16-5c3.717.117 6.007 4.263 4.118 7.479Zm6.663-9.435v4.745c0 .336-.061.64-.31.885-.203.198-.452.29-.736.29-.89 0-1.778-.006-2.666.004-.224 0-.336-.081-.381-.31a6.834 6.834 0 0 0-1.99-3.699c-1.113-1.082-2.449-1.737-3.997-1.93-1.915-.24-3.646.244-5.17 1.417-1.36 1.047-2.204 2.429-2.575 4.106-.091.406-.091.411-.492.411-.828 0-1.66.005-2.488 0-.727-.005-1.128-.406-1.128-1.138V4.181c0-.757.401-1.149 1.168-1.149h19.592c.314 0 .609.051.848.275.264.244.33.554.33.899-.005 2.947-.005 5.904-.005 8.856Z"/>
        <path d="M14.004 5.005h5.833c.168 0 .34-.005.503.055.406.15.67.524.66.942-.01.41-.3.794-.69.928-.178.06-.366.07-.55.07H8.242c-.31 0-.61-.035-.858-.244-.345-.29-.467-.709-.325-1.103.147-.399.498-.648.955-.648 1.472-.005 2.944 0 4.412-.005.533.005 1.056.005 1.579.005ZM13.997 11h-5.86c-.167 0-.34 0-.497-.06-.396-.16-.65-.526-.64-.938.01-.41.295-.796.69-.932A1.7 1.7 0 0 1 8.24 9h11.52c.344 0 .674.05.928.31.295.307.391.657.244 1.058a.952.952 0 0 1-.919.627c-1.437.005-2.874.005-4.31.005h-1.706Z"/>
    </symbol>

    <symbol id="icon-23" xmlns="http://www.w3.org/2000/svg" width="28" height="28" fill="currentColor">
        <path d="M24.945 24.561c-.185-2.261-.734-4.42-1.777-6.433-.824-1.58-1.872-2.973-3.25-4.1a10.342 10.342 0 0 0-1.947-1.276c-.24-.122-.24-.152-.04-.33.295-.265.584-.524.839-.829 1.228-1.504 1.742-3.221 1.458-5.152-.5-3.39-3.535-5.757-6.89-5.407-3.194.336-5.665 3.105-5.64 6.367.015 2.013.798 3.674 2.316 4.97.28.239.28.249-.045.411-1.388.712-2.556 1.698-3.544 2.912-1.403 1.728-2.332 3.694-2.88 5.854A17.408 17.408 0 0 0 3 25.82c-.005.783.39 1.174 1.148 1.179h19.659c.799 0 1.198-.401 1.193-1.22 0-.406-.02-.813-.055-1.219ZM9.685 7.396c0-2.388 1.946-4.37 4.292-4.375 2.387 0 4.329 1.967 4.339 4.385.01 2.384-1.962 4.416-4.308 4.39-2.417-.02-4.304-1.95-4.324-4.4Zm3.544 9.599c-.185.005-.305-.076-.395-.244-.444-.839-.444-.833-.03-1.682.155-.31.31-.615.46-.93.1-.203.244-.3.474-.295 1.008.016.769-.101 1.198.732.18.35.36.706.544 1.057.09.173.085.33 0 .503-.519 1.027-.294.844-1.323.864h-.175c-.254-.01-.504-.01-.753-.005Zm-2.002 1.489c-.49 2.032-.973 4.06-1.463 6.092-.09.371-.115.392-.489.392H5.406c-.324 0-.384-.072-.354-.392.175-1.94.654-3.8 1.552-5.528.909-1.748 2.117-3.212 3.82-4.218.064-.04.129-.076.199-.107.02-.01.045-.005.09-.005-.03.224-.15.397-.25.58-.22.406-.224.798 0 1.204.24.442.46.904.694 1.352a.856.856 0 0 1 .07.63Zm4.678 6.483H12.06c-.28 0-.32-.04-.255-.315.424-1.793.854-3.582 1.278-5.376.04-.162.13-.249.295-.249.409 0 .813.005 1.223 0 .214 0 .28.133.324.315l.884 3.725c.12.508.244 1.021.364 1.53.085.335.065.37-.27.37Zm6.704 0c-1.323.006-2.646 0-3.964.006-.23 0-.344-.087-.4-.32-.384-1.647-.778-3.288-1.172-4.935-.1-.421-.195-.838-.305-1.255a.783.783 0 0 1 .065-.59c.205-.395.384-.807.609-1.193.294-.503.35-.991.035-1.504a1.26 1.26 0 0 1-.195-.458c.135-.015.21.061.295.112 1.567.94 2.73 2.277 3.624 3.867 1.023 1.824 1.547 3.806 1.747 5.884.03.31-.035.387-.34.387Z"/>
    </symbol>
</svg>