<svg width="25" height="25" viewBox="0 0 25 25" fill="none" xmlns="http://www.w3.org/2000/svg">
<path d="M24.5183 22.762L14.2748 12.4873L24.5183 2.21261H24.6197C25.1268 1.70397 25.1268 0.991862 24.6197 0.483215C24.214 0.076297 23.5041 -0.0254324 22.997 0.279756L12.4493 10.6562L2.20588 0.381485C1.69878 -0.127162 0.887424 -0.127162 0.380324 0.381485C-0.126775 0.890132 -0.126775 1.70397 0.380324 2.11088L10.6237 12.3856L0.481744 22.762C0.177485 22.9654 0.0760649 23.2706 0.0760649 23.6775C0.0760649 23.9827 0.177485 24.2879 0.481744 24.5931C0.684584 24.7965 1.09026 25 1.39452 25C1.69878 25 2.00304 24.8983 2.3073 24.5931L12.4493 14.2167L22.6927 24.4914C23.1998 24.8983 23.9097 25 24.4168 24.5931L24.5183 24.4914L24.6197 24.3896C25.0254 23.881 25.0254 23.1689 24.5183 22.762Z" fill="white"/>
</svg>
