<svg width="16" height="16" viewBox="0 0 16 16" fill="none" xmlns="http://www.w3.org/2000/svg">
<path d="M15.3442 0.655813C14.8899 0.201559 14.1535 0.201559 13.6992 0.655813L8.00004 6.35498L2.30087 0.655814C1.84662 0.20156 1.11012 0.201559 0.65587 0.655813C0.201616 1.11007 0.201616 1.84656 0.65587 2.30081L6.35504 7.99998L0.65587 13.6991C0.201616 14.1534 0.201616 14.8899 0.65587 15.3441C1.11012 15.7984 1.84662 15.7984 2.30087 15.3441L8.00004 9.64498L13.6992 15.3441C14.1535 15.7984 14.8899 15.7984 15.3442 15.3441C15.7985 14.8899 15.7985 14.1534 15.3442 13.6991L9.64504 7.99998L15.3442 2.30081C15.7985 1.84656 15.7985 1.11007 15.3442 0.655813Z" fill="white"/>
</svg>
