<svg xmlns="http://www.w3.org/2000/svg" width="66" height="72" fill="none"><path fill="#fff" d="M33.425 72h-.844c-.674-.308-1.346-.621-2.022-.924C20.704 66.66 13 59.82 7.506 50.522 3.86 44.352 1.576 37.69.953 30.548.62 26.732.676 22.876.649 19.038c-.015-2.084 1.54-3.9 3.606-4.396 5.874-1.412 9.477-5.082 10.932-10.913.27-1.08.789-2.034 1.714-2.657.665-.448 1.447-.72 2.177-1.07h27.847c.081.04.159.098.244.12 1.957.494 3.15 1.747 3.67 3.675.115.429.198.87.347 1.287 1.743 4.875 5.107 8.032 10.106 9.386 2.782.754 4.085 2.36 4.09 5.247.001 1.336-.017 2.672.004 4.008.059 3.877-.186 7.733-1.03 11.523-3.474 15.616-12.296 27.171-26.438 34.651-1.46.77-2.994 1.404-4.493 2.101Zm-.415-61.875c-1.804 0-3.61-.008-5.414.003-2.204.014-3.977.918-5.146 2.776-2.17 3.447-4.923 6.289-8.327 8.53-1.505.99-2.484 2.457-2.502 4.267-.024 2.403-.055 4.855.365 7.208 2.158 12.077 8.947 20.554 20.205 25.45.554.242 1.054.242 1.616.01 4.28-1.765 8.072-4.258 11.285-7.593 6.607-6.86 9.574-15.128 9.381-24.582-.04-2.026-.935-3.68-2.633-4.795-3.388-2.223-6.12-5.058-8.278-8.483-1.171-1.859-2.934-2.773-5.138-2.79-1.804-.012-3.608 0-5.414 0Z"/><path fill="#fff" d="M13.882 28.226c-.396-2.6.646-4.335 2.855-5.751 3.09-1.983 5.505-4.72 7.429-7.854.897-1.46 2.118-2.136 3.835-2.114 3.373.045 6.748.034 10.123.005 1.6-.014 2.786.613 3.623 1.977 2.167 3.53 5.005 6.418 8.464 8.688 1.188.78 1.86 1.832 1.875 3.258.087 7.506-1.904 14.34-6.614 20.28-3.222 4.065-7.213 7.13-11.985 9.161a1.346 1.346 0 0 1-.97-.005C22.246 51.22 16.132 43.346 14.282 32.207c-.215-1.314-.268-2.654-.399-3.982Zm17.785 9.985c-1.105-1.108-2.027-2.04-2.958-2.96-.64-.633-1.328-.705-1.851-.213-.543.512-.49 1.253.157 1.907 1.136 1.148 2.282 2.285 3.426 3.426.84.837 1.416.837 2.262-.01 2.782-2.779 5.562-5.56 8.34-8.342.15-.149.303-.297.424-.467.361-.51.308-1.107-.12-1.533-.419-.417-1.036-.47-1.537-.113-.188.135-.35.309-.516.473-2.251 2.25-4.505 4.498-6.747 6.757-.31.314-.564.685-.88 1.075Z"/></svg>