<svg xmlns="http://www.w3.org/2000/svg" width="72" height="72" fill="none"><path fill="#fff" d="m2.01 41.203 4.699.77a28.936 28.936 0 0 0 4.186 10.088l-2.783 3.883a2.197 2.197 0 0 0 .025 2.634 32.184 32.184 0 0 0 2.233 2.46 37.87 37.87 0 0 0 2.453 2.234c.776.593 1.85.603 2.636.024l3.881-2.784a28.882 28.882 0 0 0 10.08 4.189l.77 4.702c.146.962.913 1.71 1.879 1.83.668.076 1.342.122 2.03.157a1.229 1.229 0 0 0 1.289-1.218v-9.78a1.228 1.228 0 0 0-1.186-1.22c-12.333-.64-22.004-10.826-22.004-23.175 0-12.35 9.671-22.535 22.004-23.174a1.228 1.228 0 0 0 1.186-1.22V1.83A1.228 1.228 0 0 0 34.103.61c-.686.028-1.364.076-2.035.143A2.203 2.203 0 0 0 30.19 2.6l-.769 4.703a28.91 28.91 0 0 0-10.08 4.19l-3.88-2.786a2.197 2.197 0 0 0-2.637.025 32.467 32.467 0 0 0-2.453 2.234 28.17 28.17 0 0 0-2.233 2.46 2.197 2.197 0 0 0-.025 2.638l2.783 3.883A28.937 28.937 0 0 0 6.709 30.03l-4.699.769a2.176 2.176 0 0 0-1.83 1.88c-.24 2.19-.24 4.4 0 6.59a2.207 2.207 0 0 0 1.83 1.934Z"/><path fill="#fff" d="M34.22 17.732c-9.64.61-17.148 8.608-17.148 18.269 0 9.66 7.508 17.658 17.149 18.269a1.12 1.12 0 0 0 1.166-1.13V18.862a1.12 1.12 0 0 0-1.166-1.13ZM43.93 18.916h-6.102v2.44h6.102a3.672 3.672 0 0 0 3.661-3.66v-7.548a3.661 3.661 0 1 0-2.44 0v7.547a1.22 1.22 0 0 1-1.22 1.22ZM37.83 26.238h12.203a1.22 1.22 0 0 0 0-2.44H37.829v2.44ZM37.83 53.086h6.1c.675 0 1.221.547 1.221 1.22v7.547a3.661 3.661 0 1 0 2.441 0v-7.546a3.672 3.672 0 0 0-3.661-3.662h-6.102v2.441ZM56.135 40.883H37.829v2.44h18.306c.674 0 1.22.547 1.22 1.22v6.327a3.661 3.661 0 1 0 2.441 0v-6.326a3.672 3.672 0 0 0-3.661-3.661ZM68.338 32.34a3.661 3.661 0 0 0-3.436 2.44H37.829v2.441h27.073a3.655 3.655 0 1 0 3.436-4.881Z"/><path fill="#fff" d="M51.253 46.985a1.22 1.22 0 0 0-1.22-1.22H37.829v2.44h12.204a1.22 1.22 0 0 0 1.22-1.22ZM59.795 27.458v-6.326a3.661 3.661 0 1 0-2.44 0v6.326a1.22 1.22 0 0 1-1.221 1.22H37.828v2.441h18.306a3.672 3.672 0 0 0 3.661-3.66Z"/></svg>