<svg xmlns="http://www.w3.org/2000/svg" width="72" height="72" fill="none"><path fill="#fff" d="M39.375 60.75h13.5v6.75h-13.5v-6.75ZM62.258 43.414l4.893-18.27c.056-.19.083-.387.079-.585a2.25 2.25 0 0 0-1.789-2.194 2.377 2.377 0 0 0-2.677 1.8l-3.477 10.721.068.102a4.508 4.508 0 0 1-.326 4.988c-.36.47-.813.862-1.328 1.154l-6.446 3.724a1.125 1.125 0 0 1-1.125-1.946l6.446-3.724a2.25 2.25 0 0 0 1.058-1.361 2.317 2.317 0 0 0-.225-1.71 2.25 2.25 0 0 0-3.083-.822l-9.934 5.817a7.933 7.933 0 0 0-3.892 6.795V58.5h11.25v-2.475a5.69 5.69 0 0 1 1.879-4.207l7.616-6.762a3.354 3.354 0 0 0 1.013-1.642Z"/><path fill="#fff" d="m57.465 33.21 3.139-9.686a4.612 4.612 0 0 1 4.376-3.443v-.022a2.25 2.25 0 0 0-1.789-2.194 2.377 2.377 0 0 0-2.677 1.8l-4.556 13.118a4.722 4.722 0 0 1 1.507.427ZM9.742 43.402c.166.64.519 1.215 1.012 1.654l7.606 6.761a5.66 5.66 0 0 1 1.89 4.208V58.5H31.5V47.902a7.934 7.934 0 0 0-3.893-6.795l-9.945-5.827a2.25 2.25 0 0 0-3.071.832 2.317 2.317 0 0 0-.225 1.71 2.248 2.248 0 0 0 1.057 1.361l6.446 3.724a1.125 1.125 0 0 1-1.125 1.946l-6.446-3.723a4.44 4.44 0 0 1-2.104-2.734 4.508 4.508 0 0 1 .45-3.409l.068-.101L9.258 24.22a2.412 2.412 0 0 0-2.711-1.856 2.25 2.25 0 0 0-1.777 2.193c-.002.197.02.394.067.585l4.905 18.26ZM19.125 60.75h13.5v6.75h-13.5v-6.75Z"/><path fill="#fff" d="M8.798 17.865A2.25 2.25 0 0 0 7.02 20.06v.022a4.667 4.667 0 0 1 4.399 3.5l3.116 9.63c.475-.226.985-.37 1.508-.428l-4.523-13.04a2.43 2.43 0 0 0-2.722-1.878ZM37.125 16.875v-4.5h-2.25v4.5h-4.5v2.25h4.5v4.5h2.25v-4.5h4.5v-2.25h-4.5Z"/><path fill="#fff" d="M43.953 4.725a8.903 8.903 0 0 0-6.357 2.638l-.8.801a1.125 1.125 0 0 1-1.592 0l-.798-.799a8.992 8.992 0 0 0-12.73 0 9 9 0 0 0 0 12.72L36 34.408l14.324-14.325a9 9 0 0 0-6.37-15.36Zm-.078 15.525a1.125 1.125 0 0 1-1.125 1.125h-3.375v3.375a1.125 1.125 0 0 1-1.125 1.125h-4.5a1.125 1.125 0 0 1-1.125-1.125v-3.375H29.25a1.125 1.125 0 0 1-1.125-1.125v-4.5a1.125 1.125 0 0 1 1.125-1.125h3.375V11.25a1.125 1.125 0 0 1 1.125-1.125h4.5a1.125 1.125 0 0 1 1.125 1.125v3.375h3.375a1.125 1.125 0 0 1 1.125 1.125v4.5Z"/></svg>