<svg width="60" height="60" viewBox="0 0 60 60" fill="none" xmlns="http://www.w3.org/2000/svg">
<path d="M0.5 30C0.5 13.7076 13.7076 0.5 30 0.5C46.2924 0.5 59.5 13.7076 59.5 30C59.5 46.2924 46.2924 59.5 30 59.5C13.7076 59.5 0.5 46.2924 0.5 30Z" stroke="currentColor"/>
<path d="M36.6662 29.0635L25.9859 18.3834C25.7389 18.1362 25.4091 18 25.0575 18C24.7059 18 24.3761 18.1362 24.1291 18.3834L23.3426 19.1697C22.8308 19.6821 22.8308 20.5149 23.3426 21.0265L32.3111 29.995L23.3326 38.9735C23.0856 39.2207 22.9492 39.5503 22.9492 39.9017C22.9492 40.2535 23.0856 40.583 23.3326 40.8305L24.1192 41.6166C24.3664 41.8638 24.6959 42 25.0475 42C25.3992 42 25.7289 41.8638 25.9759 41.6166L36.6662 30.9267C36.9138 30.6787 37.0498 30.3476 37.049 29.9956C37.0498 29.6422 36.9138 29.3113 36.6662 29.0635Z" fill="currentColor"/>
</svg>
