<svg xmlns="http://www.w3.org/2000/svg" width="80" height="80" fill="none">
<g clip-path="url(#a)">
<path fill="#000" fill-opacity=".5" d="M68.284 11.716C60.73 4.16 50.684 0 40 0 29.316 0 19.27 4.16 11.716 11.716 4.16 19.27 0 29.316 0 40c0 10.684 4.16 20.73 11.716 28.284C19.27 75.84 29.316 80 40 80c10.684 0 20.73-4.16 28.284-11.716C75.84 60.73 80 50.684 80 40c0-10.684-4.16-20.73-11.716-28.284Z"/><path fill="#F2F2F2" d="M61.254 37.97 31.13 20.578a2.344 2.344 0 0 0-3.516 2.03v34.784a2.343 2.343 0 0 0 3.516 2.03L61.254 42.03a2.344 2.344 0 0 0 0-4.06Z"/>
</g>
<defs>
<clipPath id="a">
<path fill="#fff" d="M0 0h80v80H0z"/>
</clipPath>
</defs>
</svg>